<svg viewBox="0 0 24 24" fill="none" xmlns="http://www.w3.org/2000/svg">
<path d="M8.25 13.875C8.25 12.6141 8.62389 11.3816 9.32438 10.3332C10.0249 9.28488 11.0205 8.46778 12.1854 7.98527C13.3503 7.50276 14.6321 7.37652 15.8687 7.6225C17.1053 7.86848 18.2412 8.47564 19.1328 9.3672C20.0244 10.2588 20.6315 11.3947 20.8775 12.6313C21.1235 13.8679 20.9972 15.1497 20.5147 16.3146C20.0322 17.4795 19.2151 18.4751 18.1668 19.1756C17.1184 19.8761 15.8859 20.25 14.625 20.25H7.125C6.03098 20.25 4.98177 19.8154 4.20818 19.0418C3.4346 18.2682 3 17.219 3 16.125C3 15.031 3.4346 13.9818 4.20818 13.2082C4.98177 12.4346 6.03098 12 7.125 12C7.58146 11.9977 8.03494 12.0738 8.46563 12.225" stroke="#222219" stroke-width="1.75" stroke-linecap="round" stroke-linejoin="round"/>
<path d="M7.47187 5.31553L7.07812 3.10303" stroke="#222219" stroke-width="1.75" stroke-linecap="round" stroke-linejoin="round"/>
<path d="M4.56563 7.17168L2.71875 5.87793" stroke="#222219" stroke-width="1.75" stroke-linecap="round" stroke-linejoin="round"/>
<path d="M3.81553 10.5283L1.60303 10.9221" stroke="#222219" stroke-width="1.75" stroke-linecap="round" stroke-linejoin="round"/>
<path d="M10.8281 6.06562L12.1219 4.21875" stroke="#222219" stroke-width="1.75" stroke-linecap="round" stroke-linejoin="round"/>
<path d="M4.83742 12.6938C4.3117 12.0747 3.95915 11.3275 3.81554 10.5281C3.62509 9.4468 3.83655 8.33314 4.4101 7.39687C4.98366 6.46061 5.87973 5.76635 6.92958 5.44482C7.97943 5.1233 9.11061 5.1967 10.1101 5.65121C11.1096 6.10572 11.9084 6.90997 12.3562 7.91251" stroke="#222219" stroke-width="1.75" stroke-linecap="round" stroke-linejoin="round"/>
</svg>
