<svg viewBox="0 0 24 24" fill="none" xmlns="http://www.w3.org/2000/svg">
<g clip-path="url(#clip0_199_6205)">
<path d="M0.0726557 7.05C0.131249 5.77266 0.332859 4.90078 0.630515 4.13672C0.937546 3.34687 1.3477 2.67891 2.01567 2.01094C2.68364 1.34297 3.35161 0.932813 4.14145 0.625781C4.90547 0.332813 5.77734 0.13125 7.05469 0.0726562C8.33437 0.0140625 8.74219 0 12 0C15.2602 0 15.668 0.0140625 16.9477 0.0726562C18.225 0.13125 19.0969 0.332812 19.8609 0.630469C20.6484 0.9375 21.3187 1.34766 21.9867 2.01328C22.6547 2.68125 23.0648 3.34922 23.3719 4.13906C23.6672 4.90313 23.8688 5.775 23.9273 7.05234C23.9859 8.33203 24 8.73984 24 12C24 15.2578 23.9859 15.668 23.9273 16.9477C23.8688 18.225 23.6672 19.0969 23.3695 19.861C23.0625 20.6484 22.6523 21.3187 21.9867 21.9867C21.3187 22.6547 20.6508 23.0648 19.8609 23.3719C19.0969 23.6696 18.225 23.8711 16.9477 23.9297C15.668 23.9883 15.2602 24.0024 12 24.0024C8.73984 24.0024 8.33203 23.9883 7.05234 23.9297C5.775 23.8711 4.90313 23.6696 4.13902 23.3719C3.35156 23.0625 2.68359 22.6523 2.01562 21.9844C1.34766 21.3164 0.937501 20.6484 0.630469 19.8586C0.332813 19.0945 0.131204 18.2227 0.0726099 16.9453C0.0140162 15.6656 -4.57764e-05 15.2578 -4.57764e-05 11.9977C1.09864e-06 8.7375 0.0140619 8.32969 0.0726557 7.05ZM2.23125 16.8516C2.28516 18.0211 2.47969 18.6562 2.64375 19.0805C2.86172 19.6406 3.12187 20.0414 3.54141 20.4609C3.96094 20.8805 4.36172 21.1406 4.92188 21.3586C5.34375 21.5227 5.98125 21.7195 7.15078 21.7711C8.41641 21.8297 8.79609 21.8415 12 21.8415C15.2039 21.8415 15.5836 21.8297 16.8492 21.7711C18.0187 21.7172 18.6539 21.5227 19.0781 21.3586C19.6383 21.1406 20.0391 20.8805 20.4586 20.4609C20.8781 20.0414 21.1383 19.6406 21.3562 19.0805C21.5203 18.6586 21.7172 18.0211 21.7688 16.8516C21.8273 15.5859 21.8391 15.2062 21.8391 12.0023C21.8391 8.79844 21.8273 8.4188 21.7688 7.15317C21.7148 5.98364 21.5203 5.34848 21.3562 4.92427C21.1383 4.36411 20.8781 3.96333 20.4586 3.5438C20.0391 3.12427 19.6383 2.86411 19.0781 2.64614C18.6562 2.48208 18.0187 2.2852 16.8492 2.23364C15.5836 2.17505 15.2039 2.16333 12 2.16333C8.79609 2.16333 8.41641 2.17505 7.15078 2.23364C5.9813 2.28755 5.34609 2.48208 4.92188 2.64614C4.36172 2.86411 3.96094 3.12427 3.54141 3.5438C3.12192 3.96333 2.86172 4.36411 2.64375 4.92427C2.47969 5.34614 2.28286 5.98364 2.23125 7.15317C2.17266 8.4188 2.16094 8.79848 2.16094 12.0023C2.16094 15.2062 2.17266 15.5859 2.23125 16.8516Z" fill="#040313"/>
<path d="M12 5.83826C15.4031 5.83826 18.1617 8.59685 18.1617 12C18.1617 15.4031 15.4031 18.1617 12 18.1617C8.5969 18.1617 5.8383 15.4031 5.8383 12C5.84065 8.59685 8.59924 5.83826 12 5.83826ZM12 15.9984C14.2102 15.9984 16.0008 14.2078 16.0008 11.9977C16.0008 9.78752 14.2102 7.9969 12 7.9969C9.78987 7.9969 7.99924 9.78752 7.99924 11.9977C8.00159 14.2078 9.79221 15.9984 12 15.9984Z" fill="#040313"/>
<path d="M5.59686 4.15546C6.39139 4.15546 7.03592 4.79999 7.03592 5.59452C7.03592 6.38905 6.39139 7.03358 5.59686 7.03358C4.80237 7.03358 4.15784 6.38905 4.15784 5.59452C4.15782 4.79999 4.80235 4.15546 5.59686 4.15546Z" fill="#040313"/>
</g>
<defs>
<clipPath id="clip0_199_6205">
<rect width="24" height="24" fill="white" transform="matrix(-1 0 0 1 24 0)"/>
</clipPath>
</defs>
</svg>
