<svg viewBox="0 0 93 106" fill="none" xmlns="http://www.w3.org/2000/svg">
<g clip-path="url(#clip0_9_10649)">
<path fill-rule="evenodd" clip-rule="evenodd" d="M10.9227 94.4808L14.821 93.4609L17.8751 94.3115V98.7334L10.7539 98.818L10.9227 94.4808Z" fill="#BC1E1A"/>
<path d="M20.3154 81.1377L30.9089 86.0407L31.3732 90.2432L33.8173 95.7312L36.4954 98.6522L22.0612 99.0024L24.6203 95.2655L24.2712 91.063L22.8746 86.9759C22.8746 86.9759 19.6171 83.4737 19.268 83.4737C18.9188 83.4737 20.3154 81.1377 20.3154 81.1377Z" fill="#BC1E1A"/>
<path fill-rule="evenodd" clip-rule="evenodd" d="M70.9191 24.3919C72.3809 39.3587 60.5021 52.7746 44.3873 54.3563C28.2764 55.9381 14.0302 45.0853 12.5684 30.1185C11.1104 15.1517 22.9854 1.73582 39.1001 0.154092C55.2149 -1.42764 69.4572 9.42512 70.9191 24.3919Z" fill="#1D1D1B"/>
<path fill-rule="evenodd" clip-rule="evenodd" d="M56.704 7.80886L55.5645 7.23543L54.989 6.96604L54.4173 6.72743L53.8303 6.48497L53.2547 6.26176L52.6677 6.05394L52.0883 5.86537L51.4859 5.68449L50.8989 5.519L50.2927 5.36891L49.6941 5.23421L48.4855 4.99945L47.8716 4.90709L47.2654 4.83012L46.6438 4.75315L46.0223 4.70697L45.3892 4.66848L44.7676 4.64924L43.5053 4.6377L42.8607 4.64924L42.2315 4.68773L41.5831 4.73006L40.9385 4.78779L40.2824 4.85706L39.6416 4.96097L38.9817 5.06103L38.3217 5.17648L37.6541 5.30733L36.9942 5.45743L36.1769 5.64215L35.375 5.85767L34.5847 6.07703L33.825 6.32334L33.0653 6.58504L32.3171 6.85828L31.5804 7.15076L30.8706 7.47404L30.1608 7.79731L29.4701 8.14368L28.791 8.50159L28.1311 8.88644L27.475 9.28283L26.8419 9.69847L26.2242 10.1295L25.618 10.5836L25.2266 10.8646L24.8506 11.1609L24.1216 11.7882L23.4041 12.4309L22.7135 13.1121L22.042 13.8087L21.712 14.1666L21.4013 14.5437L21.0828 14.9093L20.7797 15.2942L20.4727 15.6829L20.1811 16.0908L19.6939 16.7566L19.2334 17.4416L18.7999 18.1228L18.4009 18.8079L18.0172 19.4929L17.6795 20.1818L17.3534 20.8745L17.0656 21.5826L16.7817 22.2831L16.5438 23.0066L16.3251 23.7301L16.1448 24.4613L16.1064 25.485L15.9338 25.4812L15.8494 25.9622L15.7764 26.451L15.7189 26.9397L15.6767 27.44L15.6345 28.4291L15.6191 28.9179L15.6345 29.4259L15.6575 29.9223L15.6882 30.4265L15.7342 30.9268L15.7956 31.4386L15.857 31.9389L15.9453 32.4508L16.0412 32.9626L16.1601 33.4822L16.3098 34.0979L16.4786 34.7099L16.5553 34.9946L16.6513 35.291L16.8393 35.8721L17.0503 36.4378L17.2728 36.9997L17.5107 37.5462L17.7601 38.085L18.0325 38.6161L18.1706 38.8739L18.3241 39.1433L18.6656 39.7244L19.0378 40.2979L19.2258 40.575L19.4291 40.8598L19.8473 41.4178L20.1044 41.7411L20.373 42.0643L20.6492 42.3838L20.9408 42.6993L21.2248 43.0034L21.5356 43.3112L21.8425 43.6076L22.161 43.9116L22.4794 44.1926L22.8171 44.4812L23.1547 44.766L23.5077 45.0469L23.8607 45.3163L24.2329 45.5819L24.6012 45.8436L24.9849 46.1053L25.5297 46.4555L26.0899 46.798L26.6616 47.1251L27.2486 47.4484L27.7743 47.7139L28.3076 47.9718L28.8524 48.2258L29.3896 48.4644L29.9344 48.6838L30.4754 48.8954L31.0202 49.0955L31.5804 49.288L32.1252 49.4611L32.6816 49.6266L33.2379 49.7729L33.8058 49.9153L34.3698 50.0346L34.9415 50.1539L35.5208 50.2616L36.0925 50.3501L36.7448 50.4271L37.3971 50.4964L38.0608 50.5464L38.7246 50.5888L39.3845 50.608L40.056 50.6118L40.7351 50.6003L41.4181 50.5849L42.0972 50.531L42.7801 50.4733L43.4708 50.3963L44.1614 50.3117L44.852 50.2001L45.5542 50.0846L46.2602 49.9499L46.97 49.8037L47.6184 49.6459L48.2592 49.4765L48.8961 49.3034L49.5292 49.1186L50.1392 48.9185L50.4385 48.8107L50.5881 48.7569L50.7454 48.7107L51.3517 48.4875L51.9502 48.2604L52.5296 48.0141L53.1051 47.764L53.3852 47.6254L53.6729 47.4946L54.2331 47.2252L54.7818 46.9404L55.3189 46.6479L55.8523 46.3439L56.1093 46.1822L56.3779 46.0283L56.8882 45.6896L57.3947 45.3509L57.8896 45.0007L58.3808 44.639L58.8604 44.2618L59.3246 43.877L59.7889 43.4883L60.2416 43.088L60.4603 42.8725L60.5639 42.7648L60.6829 42.6647L61.1164 42.2414L61.2162 42.1298L61.3236 42.022L61.5423 41.8065L61.9605 41.3601L62.3634 40.8982L62.7701 40.4326L63.1615 39.9477L63.5528 39.4627L63.6564 39.3165L63.7638 39.1818L63.8367 39.0664L63.9135 38.9547L64.0746 38.7392L64.3777 38.3044L64.6693 37.8656L64.9571 37.4307L65.2257 36.9805L65.4904 36.5417L65.548 36.4263L65.6094 36.3185L65.736 36.0992L65.9777 35.6604L66.1964 35.2063L66.4074 34.7599L66.6108 34.3058L66.8065 33.867L66.9829 33.4091L67.0674 33.182L67.1556 32.9626L67.3168 32.5047L67.4664 32.0659L67.639 31.4309L67.8002 30.8113L67.9345 30.1763L68.0573 29.5529L68.1494 28.9179L68.2223 28.279L68.2721 27.6402L68.2836 27.3939L68.2952 27.3207L68.3143 27.009L68.3182 26.3509L68.3105 25.7082L68.2798 25.0501L68.2338 24.4113L68.1532 23.7493L68.1071 23.4222L68.0611 23.0989L67.9383 22.437L67.8693 22.106L67.8079 21.7828L67.6659 21.2016L67.5163 20.6474L67.3513 20.0894L67.1748 19.5506L66.9829 19.008L66.7758 18.4846L66.5609 17.9612L66.3345 17.4609L66.0813 16.9529L65.8242 16.4641L65.5518 15.9754L65.264 15.502L64.9686 15.0286L64.6578 14.5745L64.324 14.1204L63.994 13.6894L63.6334 13.2506L63.2689 12.8273L62.8852 12.4078L62.49 12.0076L62.0833 11.5996L61.6574 11.2186L61.22 10.8376L60.7826 10.472L60.3184 10.0987L59.8349 9.74465L59.3438 9.39829L58.8488 9.06347L58.3309 8.7325L57.8014 8.41692L57.2527 8.10519L56.704 7.80886Z" fill="white"/>
<path d="M29.2744 8.328L32.693 6.75781L36.3112 22.8561L32.8926 23.6758L29.2744 8.328Z" fill="#BC1E1A"/>
<path d="M36.1768 5.64212L39.6414 4.96094L44.0001 22.0021L40.5968 22.9026L36.1768 5.64212Z" fill="#BC1E1A"/>
<path fill-rule="evenodd" clip-rule="evenodd" d="M17.7715 57.0619L18.8381 61.9996L19.1105 61.6917L19.4021 61.38L19.6899 61.0528L19.993 60.7257L20.3 60.3716L20.6223 60.0137L20.9407 59.6481L21.2745 59.271L21.6122 58.8746L21.9652 58.4782L22.3181 58.0625L22.6903 57.6392L23.0587 57.2043L23.4423 56.7579L23.8337 56.2961L24.2404 55.8381L24.7469 55.2185L25.261 54.6181L25.7751 54.0255L26.2854 53.4444L26.7881 52.8671L27.2945 52.3052L28.2998 51.2122L29.282 50.15L29.7655 49.6266L30.2566 49.1263L30.7362 48.626L31.2235 48.145L31.6954 47.6601L32.1827 47.1982L17.7715 57.0619Z" fill="#1D1D1B"/>
<path fill-rule="evenodd" clip-rule="evenodd" d="M47.6791 43.307L46.7775 43.2492L45.8835 43.2262L44.978 43.1992L44.0763 43.2069L42.979 43.2146L41.9008 43.2377L40.838 43.2839L39.8021 43.3532L38.7738 43.4378L37.7724 43.5494L36.7863 43.6764L35.8156 43.8227L35.4127 44.169L35.0137 44.5346L34.2271 45.2851L33.4137 46.051L32.608 46.8553L32.5811 46.8938L32.5581 46.9246L32.0747 47.3902L31.6027 47.879L31.1193 48.3678L30.6435 48.8719L30.1563 49.3799L29.6767 49.9071L28.6983 50.9809L27.7007 52.0854L27.1981 52.655L26.6993 53.2399L26.1928 53.8249L25.6825 54.4253L25.1684 55.0333L24.6657 55.6568L24.2629 56.1225L23.8753 56.5881L23.4955 57.0384L23.131 57.481L22.7627 57.9082L22.4135 58.3277L22.0605 58.7279L21.7267 59.132L21.3929 59.513L21.0744 59.8825L20.756 60.2442L20.4529 60.6021L20.1498 60.9331L19.8658 61.2641L19.5781 61.5796L19.3057 61.8875L20.3454 66.8444L19.3057 61.8875L19.0639 62.13L18.8414 62.3763L18.6112 62.6149L18.404 62.8419L18.1853 63.0536L17.9858 63.2691L17.7824 63.4654L17.5983 63.6655L17.4026 63.8426L17.2223 64.0196L17.0458 64.1851L16.8808 64.3506L16.5623 64.6353L16.2784 64.9047L15.9753 65.1472L15.6952 65.3858L15.5571 65.4974L15.4343 65.6167L15.3077 65.7206L15.1964 65.8322L15.0813 65.9284L14.9815 66.0324L14.7859 66.2132L14.6055 66.3864L14.5211 66.4634L14.4559 66.5519L14.3139 66.6943L14.1988 66.829L14.0952 66.9483L14.0492 67.0022L14.0185 67.0637L13.9571 67.16L13.9341 67.1985L13.9226 67.2485L13.9072 67.2793V67.3216L13.9187 67.3832L14.0185 67.795L14.1528 68.2145L14.3523 68.861L14.5863 69.5075L14.8434 70.1387L15.1312 70.7776L15.4343 71.3933L15.7681 72.0168L16.1172 72.6248L16.3053 72.925L16.5048 73.2329L16.9038 73.8217L17.3297 74.4144L17.7709 74.9917L18.2505 75.5766L18.7378 76.1462L19.2635 76.7119L19.8083 77.2661L20.3838 77.8203L21.1167 78.4822L21.8917 79.1442L22.1948 79.3905L22.5133 79.6406L23.1579 80.1448L23.8255 80.6374L24.5123 81.1262L25.2182 81.5995L25.9587 82.0729L26.3271 82.3038L26.7108 82.5386L27.4973 83.0042L28.2302 83.416L28.9745 83.8201L29.7265 84.2165L30.4901 84.6052L31.4953 85.0786L32.5198 85.5442L33.5557 85.9791L34.6032 86.3986L35.6468 86.7835L36.7173 87.1568L37.7954 87.4954L38.8927 87.8264L39.7714 88.0573L40.6654 88.2882L41.5555 88.4922L42.4687 88.6885L43.3742 88.8539L44.2912 89.0194L45.2197 89.1695L46.1559 89.3042L47.0844 89.4081L48.0244 89.512L48.9721 89.6006L49.9352 89.6698L50.8982 89.7276L51.8651 89.766L52.8473 89.7891L53.8296 89.7968L54.7351 89.7814L55.6367 89.7583L55.8554 89.743L55.9629 89.7353H56.078L56.5307 89.7199L57.417 89.6814L57.5168 89.666L57.6242 89.6583L57.8429 89.6429L58.2765 89.6121L58.3762 89.5967L58.4837 89.589L58.7024 89.5736L59.1398 89.5428L59.558 89.4966L59.6577 89.4812L59.769 89.4736L59.9877 89.4582L60.828 89.3542L61.6491 89.2388L62.0519 89.1657L62.4663 89.1041L62.8615 89.0233L63.2644 88.954L64.0548 88.8039L64.8336 88.6269L65.2135 88.5345L65.601 88.4499L65.9694 88.3459L66.3492 88.2536L67.1051 88.0458L67.1549 87.226L67.2393 86.4217L67.3429 85.6174L67.4657 84.8207L67.6 84.0202L67.7496 83.239L67.93 82.4577L68.1257 81.6919L68.3367 80.9183L68.5592 80.1525L68.8009 79.3943L69.0734 78.6439L69.3534 77.8934L69.6566 77.1584L69.975 76.4233L70.328 75.7036L70.6733 74.9763L71.0493 74.2604L71.4445 73.5485L71.8589 72.8442L72.2848 72.1399L72.7337 71.4472L73.2095 70.7583L73.6968 70.0771L74.1917 69.3998L74.7135 68.7263L75.2507 68.0567L75.8147 67.4024L76.3902 66.7443L76.9888 66.0978L77.6027 65.4589L78.2396 64.8278L77.6909 65.509L77.1729 66.2017L76.6703 66.879L76.1869 67.5756L75.7226 68.2529L75.4962 68.5916L75.2852 68.938L74.867 69.6192L74.4795 70.3119L74.0996 70.9892L73.7428 71.6666L73.4051 72.3477L73.0982 73.0405L72.8028 73.7178L72.5265 74.3951L72.2771 75.0725L72.0546 75.7614L71.8359 76.4271L71.6517 77.1045L71.4791 77.7818L71.3371 78.463L71.2143 79.1249L71.1146 79.8061L71.0301 80.4758L70.9726 81.157L70.9304 81.8189L70.9112 82.4962V83.1582L70.9342 83.8394L70.9726 84.5013L71.0455 85.1709L71.1299 85.8329L71.2412 86.5141L71.9395 86.1908L72.281 86.0176L72.4536 85.9291L72.6339 85.8483L72.7951 85.7521L72.9678 85.6635L73.3092 85.4904L73.9768 85.1286L74.6291 84.7399L74.7864 84.636L74.9476 84.5398L75.2737 84.3512L75.5806 84.1395L75.8991 83.9356L76.2137 83.72L76.5322 83.5161L76.4363 82.554L76.3825 81.6072L76.348 80.6605L76.3672 79.7292L76.4056 78.7978L76.4823 77.8819L76.5936 76.9736L76.7317 76.0808L76.9082 75.1802L77.1077 74.2951L77.3379 73.4099L77.618 72.544L77.9134 71.6743L78.2549 70.8199L78.6194 69.9771L79.0223 69.1496L78.8765 69.6153L78.7422 70.0848L78.6079 70.5466L78.5005 71.0123L78.3892 71.4549L78.2971 71.9052L78.2127 72.34L78.1398 72.7826L78.0669 73.2021L78.0132 73.6293L77.9556 74.0411L77.9288 74.4606L77.9019 74.857L77.8828 75.2611L77.8674 75.6459L77.8789 76.0423V76.4118L77.9019 76.7928L77.9211 77.1545L77.9595 77.5163L78.0017 77.8626L78.0631 78.2205L78.1245 78.5592L78.2012 78.9056L78.2818 79.2289L78.3739 79.5598L78.4736 79.8754L78.5926 80.191L78.7115 80.4912L78.8496 80.799L78.9878 81.0915L79.1451 81.3917L79.5594 80.9799L79.759 80.7759L79.9623 80.5797L80.3422 80.1679L80.7105 79.7561L81.0635 79.3289L81.1441 79.2173L81.2246 79.1134L81.3973 78.9094L81.7158 78.4822L81.8731 78.2667L82.0304 78.0628L82.3028 77.6202L82.4332 77.4008L82.5752 77.1892L82.698 76.9582L82.8208 76.7389L83.0625 76.2963L83.2735 75.8422L83.3157 75.7229L83.3733 75.6151L83.473 75.3919L83.5574 75.1533L83.6534 74.9262L83.8299 74.4683L83.8644 74.3413L83.9028 74.222L83.9718 73.9834L84.1061 73.51L84.1291 73.383L84.156 73.2675L84.2174 73.0289L84.3171 72.5556L84.3977 72.0668L84.4668 71.578L84.486 71.3279L84.4936 71.2009L84.509 71.0816L84.5473 70.5928V70.3311L84.5589 70.081V69.573L84.5435 69.3113L84.532 69.0573L84.5166 68.7956L84.5013 68.5454L84.4668 68.276L84.4514 68.1413L84.4399 68.0143L84.3747 67.4948L84.321 67.2254L84.3018 67.0907L84.2864 66.9637L84.2404 66.6943L84.1944 66.4326L84.0486 65.8245L83.8912 65.2319L83.7148 64.6392L83.5229 64.0542L83.3042 63.4693L83.0817 62.8997L82.8246 62.3301L82.5637 61.7682L82.2644 61.2063L81.9651 60.656L81.6275 60.1095L81.2937 59.5707L80.9177 59.0358L80.5378 58.5047L80.135 57.9851L79.7206 57.4733L79.2678 56.9538L78.8113 56.4496L78.3317 55.9454L77.8444 55.4567L77.3226 54.9679L76.7969 54.4869L76.2367 54.0058L75.6727 53.5401L75.0742 53.0668L74.468 52.6088L73.831 52.1508L73.1865 51.7082L72.5112 51.258L71.8282 50.8231L71.1222 50.3882L70.4124 49.9687L69.7563 49.5916L69.104 49.2337L68.4441 48.8873L67.7957 48.5563L67.1281 48.2215L66.4681 47.9059L65.789 47.5981L65.1252 47.3056L64.4308 47.0131L63.7517 46.736L63.0572 46.4666L62.3742 46.2241L61.6759 45.9701L60.9738 45.7431L60.2716 45.5199L59.5733 45.3159L58.8482 45.1004L58.1345 44.9118L57.4132 44.7232L56.688 44.5577L55.9514 44.3923L55.2185 44.2422L54.4818 44.0998L53.7452 43.9728L52.9893 43.8458L52.245 43.738L51.4814 43.6341L50.7332 43.5494L49.9659 43.4609L49.2062 43.3993L48.435 43.3339L47.6676 43.2954M35.1096 60.1942L36.019 60.1749L36.9436 60.1865L38.7738 60.225L40.1397 60.2981L41.3598 60.3674L41.9661 60.4097L42.58 60.4636L43.1747 60.5098L43.7809 60.5752L44.3794 60.6406L44.9857 60.7176L46.1636 60.8754L47.3453 61.0562L48.5079 61.2525L49.6743 61.4719L49.9429 61.5335L50.2536 61.5758L50.5721 61.6335V61.672L51.3049 61.8298L51.7462 61.9337L52.2219 62.053L52.7207 62.1839L53.2579 62.3416L53.8104 62.5071L54.3898 62.688L54.996 62.8843L55.6406 63.0998L56.289 63.3115L56.9835 63.5578L57.6894 63.8118L58.4338 64.085L59.1935 64.3621L59.9877 64.67L60.8011 64.9779L61.6606 65.3165L62.0519 65.4666L62.4663 65.6321L63.3027 65.9708L64.1507 66.3094L65.0255 66.6635L65.9271 67.0368L66.8518 67.4217L67.976 67.8873L69.1386 68.3838L70.3357 68.8995L71.5711 69.4267L70.1515 68.9842L68.7472 68.5685L67.3583 68.1644L66 67.795L64.9756 67.5025L63.9627 67.2408L61.9982 66.7443L61.0313 66.5096L60.076 66.2864L59.1129 66.067L58.1614 65.863L57.2213 65.659L56.3005 65.4782L55.372 65.2896L54.4511 65.1203L53.5418 64.9548L52.6402 64.8047L50.8484 64.5199L49.962 64.3852L49.0911 64.2774L48.2086 64.1581L47.3338 64.0619L46.4744 63.9696L45.6302 63.8887L44.7746 63.8079L43.9344 63.7463L42.2807 63.6424L40.6423 63.5693L39.8366 63.5462L39.0424 63.5385L37.4654 63.5462L36.6866 63.5616L35.9269 63.5924L34.9945 63.6155L34.0775 63.6694L33.1682 63.731L32.2742 63.8195L31.3802 63.9041L30.5131 64.0157L29.6498 64.135L28.8057 64.2851L28.3453 64.366L28.2071 64.3813L28.0767 64.4121L29.5155 60.4405L30.8622 60.3366L32.2166 60.2673L33.5557 60.2134L34.8871 60.1903H35.1058L35.1096 60.1942Z" fill="#BC1E1A"/>
<path fill-rule="evenodd" clip-rule="evenodd" d="M40.432 60.5062L38.5864 60.4716L37.6541 60.4639L36.7371 60.4831H36.5145L35.1717 60.5139L33.8249 60.5755L32.4628 60.6524L29.167 60.5447L29.6658 64.9127L29.8001 64.8819L29.9382 64.8627L30.4025 64.7819L31.2542 64.6202L32.1214 64.4932L32.9962 64.3778L33.8978 64.2854L34.7956 64.1892L35.7126 64.1238L36.6335 64.0622L37.5735 64.0353L38.337 64.0006L39.1198 63.9814L40.7082 63.9698L41.5063 63.9737L42.3197 63.9968L43.9695 64.0661L45.6309 64.17L46.4788 64.2315L47.3383 64.3162L48.1901 64.3932L49.0572 64.4894L49.9358 64.5856L50.826 64.7088L51.7008 64.8204L52.5948 64.9589L54.4019 65.2475L55.3112 65.4053L56.2282 65.5747L57.1568 65.7479L58.0968 65.9403L59.0215 66.1289L59.9692 66.3405L60.9284 66.5522L61.8991 66.7793L62.8583 67.0102L63.8367 67.2526L65.8165 67.7645L66.8333 68.0377L67.8692 68.3379L69.2351 68.7189L70.6394 69.1384L72.0552 69.5694L73.4864 70.0274L72.2394 69.4809L71.0346 68.946L69.8605 68.4303L68.7287 67.9492L67.7925 67.5451L66.8832 67.1603L66.0045 66.7946L65.1489 66.4406L64.3048 66.0904L63.8866 65.9172L63.4914 65.7594L62.6243 65.4092L61.807 65.0898L61.009 64.7703L60.2416 64.4817L59.4896 64.1969L58.7797 63.9352L58.0776 63.6812L57.4215 63.4618L56.7731 63.2386L56.163 63.0347L55.576 62.8461L55.0235 62.6768L54.4825 62.5113L53.9799 62.3727L53.5003 62.2534L53.0552 62.1457L52.3147 61.984L51.6854 61.8416L51.4168 61.7801L50.2389 61.553L49.0649 61.349L47.8754 61.1604L46.6899 61.0027L46.0798 60.9218L45.4736 60.8564L44.8635 60.791L44.265 60.7448L43.6472 60.6871L43.0372 60.6486L41.8056 60.5793L40.432 60.5062Z" fill="#1D1D1B"/>
<path fill-rule="evenodd" clip-rule="evenodd" d="M43.7884 43.5117L44.6939 43.504L45.6071 43.5271L46.5049 43.5502L47.4142 43.6079L48.1893 43.6464L48.9643 43.708L49.7278 43.7695L50.5029 43.8542L51.2587 43.9389L52.0299 44.0428L52.7781 44.1505L53.5378 44.2775L54.2783 44.4007L55.0227 44.5431L55.7555 44.6893L56.496 44.8548L57.2289 45.0203L57.9579 45.2089L58.6715 45.3936L59.4043 45.6053L60.1065 45.8092L60.8125 46.0286L61.5223 46.2518L62.2244 46.5058L62.9112 46.7444L63.6095 47.01L64.2963 47.2832L64.9946 47.5718L65.6622 47.8643L66.3452 48.1645L67.009 48.4801L67.6843 48.8072L68.3404 49.1343L69.0041 49.4807L69.6602 49.8309L70.3163 50.2042L71.0338 50.6199L71.7475 51.0509L72.4343 51.4781L73.1134 51.9206L73.7656 52.3632L74.4064 52.8135L75.0165 53.2676L75.6188 53.7333L76.1905 54.1951L76.7546 54.6723L77.284 55.1495L77.8097 55.6344L78.3008 56.1194L78.7842 56.6197L79.2447 57.1161L79.6974 57.6318L80.1118 58.1398L80.5185 58.6555L80.9022 59.1789L81.2782 59.71L81.612 60.2411L81.9535 60.7799L82.2566 61.3264L82.5559 61.8806L82.8168 62.4347L83.0777 62.9966L83.3002 63.5624L83.5228 64.1396L83.7146 64.7169L83.8911 65.3019L84.0484 65.8907L84.198 66.4872L84.2441 66.7489L84.2901 67.0106L84.3055 67.1376L84.3246 67.2723L84.3784 67.5379L84.4436 68.0497L84.4551 68.1767L84.4705 68.3076L84.5011 68.5769L84.5165 68.8232L84.5318 69.0811L84.5395 69.3312L84.5549 69.5891V70.0894L84.5433 70.3396V70.5974L84.505 71.0823L84.4935 71.1978L84.482 71.3248L84.4628 71.5749L84.3937 72.056L84.3093 72.5409L84.2095 73.0104L84.1481 73.2452L84.1213 73.3606L84.0944 73.4876L83.9601 73.9533L83.8911 74.1919L83.8527 74.3074L83.8182 74.4344L83.6417 74.8846L83.5458 75.1117L83.4614 75.3465L83.3616 75.5658L83.3002 75.6736L83.258 75.7929L83.047 76.2431L82.8052 76.6819L82.6786 76.9012L82.5559 77.1283L82.4139 77.3361L82.2796 77.5555L82.0072 77.9942L81.8499 78.1943L81.6926 78.4099L81.3703 78.8293L81.1976 79.0333L81.117 79.1334L81.0365 79.245L80.6835 79.6645L80.3113 80.0724L79.9276 80.4765L79.7204 80.6728L79.5209 80.8729L79.1065 81.2808L78.9454 80.9845L78.8073 80.6959L78.6691 80.3918L78.5502 80.0916L78.4313 79.7799L78.3315 79.4682L78.2394 79.1411L78.1588 78.8216L78.0821 78.4753L78.0207 78.1443L77.9593 77.7902L77.9133 77.4477L77.8749 77.086L77.8596 76.7281L77.8327 76.3548V75.9853L77.825 75.5966L77.8365 75.2156L77.8596 74.8154L77.8864 74.4228L77.9133 74.011L77.9708 73.6031L78.0245 73.1836L78.0974 72.768L78.1665 72.3331L78.2548 71.902L78.3468 71.4556L78.4543 71.0207L78.5655 70.5589L78.6998 70.1048L78.8341 69.6353L78.9799 69.1735L78.5732 69.997L78.2049 70.8322L77.8634 71.675L77.5641 72.5332L77.284 73.3914L77.05 74.2689L76.8466 75.1425L76.6701 76.0315L76.532 76.9166L76.4246 77.8133L76.3478 78.7177L76.3095 79.6414L76.2903 80.5612L76.321 81.5002L76.3747 82.4354L76.4706 83.3898L76.1522 83.5899L75.8337 83.8054L75.5152 84.0056L75.2045 84.2172L74.8745 84.4058L74.7133 84.4982L74.556 84.5982L73.8999 84.9831L73.2247 85.341L72.8793 85.5142L72.7067 85.5988L72.5455 85.6951L72.3652 85.772L72.1926 85.8567L71.8472 86.0299L71.1451 86.3493L71.0338 85.6758L70.9494 85.0216L70.8765 84.3596L70.8381 83.7015L70.8151 83.0319V82.3738L70.8343 81.7042L70.8765 81.0461L70.9341 80.3726L71.0223 79.7106L71.1221 79.041L71.2449 78.3829L71.3868 77.7094L71.5595 77.0398L71.7475 76.3702L71.9662 75.7121L72.1926 75.0309L72.4419 74.3612L72.7182 73.6877L73.0136 73.0181L73.3244 72.3331L73.6659 71.6596L74.0227 70.9861L74.4064 70.3165L74.7978 69.6314L75.216 68.9579L75.427 68.6154L75.6572 68.2768L76.1253 67.6071L76.6126 66.9182L77.1191 66.2486L77.6409 65.5597L78.1972 64.8862L77.5564 65.5135L76.9387 66.1447L76.3363 66.7835L75.757 67.4339L75.1891 68.0805L74.6481 68.7463L74.1225 69.4121L73.6275 70.0817L73.1326 70.7552L72.6568 71.4325L72.2002 72.1214L71.7705 72.818L71.3561 73.5107L70.9571 74.215L70.5811 74.9231L70.2319 75.6428L69.8789 76.3548L69.5566 77.0783L69.2535 77.8056L68.9696 78.5484L68.6972 79.2912L68.4555 80.0378L68.2291 80.7959L68.0181 81.5618L67.8224 82.3199L67.642 83.0935L67.4886 83.867L67.3543 84.656L67.2315 85.4449L67.1241 86.2415L67.0397 87.0382L66.986 87.8502L66.6675 88.4968L66.986 87.8502L66.2263 88.0542L65.8426 88.1465L65.4704 88.2466L65.079 88.3351L64.6954 88.4275L63.9126 88.6007L63.1146 88.7469L62.7079 88.8162L62.3127 88.897L61.8945 88.9586L61.4878 89.0317L60.6628 89.1472L59.8149 89.2472L59.5962 89.2626L59.4849 89.2742L59.3852 89.2857L58.9631 89.3319L58.5257 89.3665L58.307 89.3819L58.1957 89.3858L58.096 89.405L57.6586 89.4358L57.4399 89.4512L57.3286 89.4589L57.2289 89.4743L56.3349 89.5128L55.8821 89.5282H55.767L55.6558 89.5359L55.4371 89.5513L54.5277 89.5743L53.6146 89.5897L52.6246 89.582L51.6347 89.559L50.6602 89.5205L49.6895 89.4666L48.7187 89.3973L47.7634 89.3088L46.8157 89.2087L45.8795 89.1087L44.9395 88.974L44.0071 88.8239L43.0824 88.6623L42.1693 88.4968L41.2522 88.3043L40.3544 88.1004L39.4566 87.8733L38.5703 87.6463L37.4653 87.3191L36.3833 86.9843L35.3013 86.6148L34.25 86.2339L33.191 85.8182L32.1512 85.3872L31.1191 84.9292L30.1024 84.4597L29.335 84.0787L28.5791 83.6861L27.831 83.2897L27.0943 82.8818L26.3001 82.42L25.9125 82.1891L25.5404 81.962L24.7922 81.4925L24.0824 81.023L23.3879 80.5419L22.7126 80.057L22.0642 79.5567L21.7419 79.3066L21.4388 79.0641L20.6561 78.4099L19.9232 77.7518L19.3439 77.2053L18.7952 76.6588L18.2619 76.0969L17.7708 75.535L17.2873 74.9539L16.8422 74.3843L16.4125 73.7994L16.0135 73.2144L15.8101 72.9104L15.6221 72.614L15.2691 72.0098L14.9353 71.394L14.6284 70.786L14.3368 70.151L14.0797 69.5275L13.8457 68.8848L13.6462 68.246L13.5119 67.8342L13.4121 67.4262L13.4773 67.8419L13.5848 68.2768L13.7306 68.9579L13.9071 69.6353L14.003 69.9624L14.1143 70.3011L14.3483 70.9746L14.4672 71.294L14.5977 71.6211L14.8701 72.2754L15.1694 72.918L15.4994 73.5569L15.8332 74.1804L16.2015 74.8077L16.589 75.4157L16.7962 75.7198L17.0149 76.0315L17.4446 76.6357L17.9051 77.2361L18.1391 77.5247L18.3923 77.821L18.9103 78.4137L19.2441 78.7832L19.5971 79.1565L19.7851 79.3681L19.5511 82.0929L19.5395 82.1314V82.1467L20.564 82.7971L21.6038 83.4283L22.6512 84.0287L23.7064 84.6252L24.7615 85.1871L25.8358 85.7335L26.9024 86.2492L27.9921 86.7572L29.0741 87.2229L30.1676 87.677L31.2649 88.1004L32.3853 88.5122L33.498 88.897L34.6222 89.2626L35.754 89.5974L36.8974 89.9207L37.0356 89.9592L37.1814 90.0054L37.4307 90.0824L37.5382 90.1131L37.6379 90.1478L37.7339 90.167L37.8298 90.2017L37.8988 90.217L37.9602 90.2401L38.0178 90.2555H38.0255L38.0408 90.2632L38.0677 90.2786H38.0945L38.1137 90.2863L38.1406 90.3017H38.1636L38.1789 90.3171L39.3223 90.6866L40.4772 91.0368L41.6436 91.3639L42.8253 91.6718L44.0071 91.9412L45.2119 92.199L46.4166 92.4261L47.6406 92.6378L48.8645 92.8071L50.1077 92.9649L51.3508 93.0996L52.617 93.2073L53.8831 93.2843L55.1646 93.3459L56.4538 93.3882L57.766 93.4036L58.7598 93.3882L59.742 93.3651L60.7127 93.3228L61.1923 93.292L61.6758 93.2689L62.1439 93.2304L62.6196 93.1996L63.5597 93.1227L64.4805 93.0187L64.9371 92.9649L65.3975 92.9187L65.62 92.8802L65.8426 92.8456L66.2992 92.7878L66.7366 92.7147L67.1816 92.6531L68.0564 92.4992L68.2675 92.4492L68.4862 92.4107L68.9236 92.3337L69.7792 92.1451L69.9787 92.0913L70.1935 92.0451L70.6156 91.9489L71.4405 91.7411L72.2654 91.5217L73.0635 91.2792L73.4549 91.1445L73.8501 91.0214L74.2337 90.879L74.6251 90.7481L75.0088 90.6057L75.4001 90.4749L76.1522 90.167L76.5167 90.0131L76.8927 89.863L77.6178 89.5359L78.3392 89.201L79.0336 88.8431L79.379 88.6546L79.5554 88.5583L79.7319 88.4737L79.8931 88.3736L80.0658 88.2812L80.4111 88.0927L81.0825 87.6924L81.2398 87.5847L81.4048 87.4846L81.7348 87.2806L82.3832 86.8573L82.694 86.6302L83.0163 86.4109L83.6417 85.9683L83.9371 85.7258L84.2326 85.4911L84.8119 85.0216L85.3568 84.5367L85.6253 84.2942L85.8939 84.0633L86.1395 83.8093L86.3965 83.5707L86.6344 83.3205L86.7534 83.1935L86.8761 83.0781L86.9874 82.9434L87.1025 82.8202L87.3327 82.5701L87.7778 82.0698L87.9812 81.8042L88.1845 81.5464L88.5759 81.0307L88.9327 80.4996L89.1053 80.234L89.278 79.9762L89.4353 79.703L89.5926 79.4374L89.6617 79.295L89.7423 79.1642L89.8919 78.8986L90.1643 78.3521L90.4214 77.8056L90.5288 77.517L90.6401 77.2361L90.8396 76.6742L91.0123 76.0969L91.0928 75.8083L91.1696 75.5273L91.2962 74.9308L91.3537 74.6345L91.3729 74.4882L91.4036 74.3458L91.419 74.1919L91.442 74.0418L91.4919 73.7455L91.5609 73.1528L91.5763 72.8372L91.5916 72.5332L91.607 71.9251L91.5916 71.3017L91.5763 70.9861L91.5609 70.6821L91.5302 70.3626L91.4957 70.0509L91.4765 69.8854L91.4612 69.7315L91.419 69.4159L91.3652 69.0926L91.3192 68.7732L91.2003 68.1305L91.0468 67.4724L90.8741 66.8259L90.6785 66.1832L90.4674 65.5597L90.2257 64.9286L89.9763 64.309L89.7001 63.6932L89.4123 63.0928L89.0823 62.4809L88.7485 61.8883L88.3879 61.2956L88.0118 60.7183L87.6051 60.1333L87.1869 59.5638L86.7457 58.998L86.2891 58.4438L85.798 57.882L85.2915 57.3355L84.762 56.7967L84.221 56.2656L83.6455 55.7345L83.0623 55.2111L82.4523 54.6954L81.823 54.1874L81.1708 53.6794L80.4955 53.183L79.8048 52.6903L79.0912 52.2054L78.3468 51.7205L77.5948 51.251L76.8236 50.7815L76.0294 50.3312L74.8591 49.6731L73.6889 49.0651L72.4957 48.4878L71.3062 47.9413L70.6156 47.6296L69.925 47.3409L69.2267 47.0484L68.5399 46.7867L67.8262 46.5212L67.1241 46.2672L66.4143 46.0209L65.7121 45.7938L64.9831 45.5591L64.2656 45.3474L63.5328 45.1357L62.8153 44.9433L62.0825 44.747L61.3496 44.5739L60.6091 44.4007L59.8686 44.2544L59.1127 44.0967L58.3607 43.9581L57.601 43.8234L56.8413 43.708L56.074 43.5886L55.3028 43.4886L54.5277 43.3924L53.7642 43.3193L52.9738 43.2384L52.1911 43.1769L51.4007 43.1153L50.618 43.0729L49.8161 43.0345L49.0142 43.0114L48.2123 42.996H47.4142L47.2032 42.9883L46.9998 42.996H46.1634L45.3385 43.0114L44.5289 43.0345L43.7385 43.0845L42.6335 43.1384L41.563 43.223L40.5117 43.3231L39.472 43.4501L38.4475 43.5848L37.4384 43.7426L36.4447 43.9273L35.4663 44.1274L36.4447 43.9812L37.4384 43.8542L38.4475 43.7426L39.4835 43.6618L40.5271 43.5886L41.5976 43.5425L42.6834 43.5194L43.7884 43.5117Z" fill="#1D1D1B"/>
<path fill-rule="evenodd" clip-rule="evenodd" d="M57.2902 18.5343L57.0331 18.388L56.7799 18.2687L56.5305 18.1533L56.2811 18.0648L56.0164 17.9801L55.767 17.9108L55.4984 17.857L55.249 17.8185L54.9804 17.7761L54.7157 17.7723L54.451 17.7607L54.1824 17.7877L53.91 17.8108L53.6491 17.857L53.3728 17.9108L53.1081 17.9801L25.5212 25.3692L25.2411 25.4385L24.9802 25.5309L24.7231 25.6271L24.4814 25.7425L24.2397 25.8618L24.0133 25.9927L23.7869 26.1351L23.5797 26.2967L23.3687 26.4545L23.173 26.6315L22.9812 26.8201L22.8085 27.0241L22.6282 27.228L22.4709 27.4551L22.3174 27.6822L22.1754 27.9285L22.0258 28.1709L21.9107 28.4211L21.7917 28.6712L21.7035 28.9329L21.6191 29.1792L21.5462 29.4371L21.4963 29.6949L21.4579 29.9605L21.4119 30.2183L21.4081 30.4839L21.4004 30.7494L21.4234 31.0227L21.4963 31.5615L21.5462 31.8347L21.6191 32.1156L28.1532 56.4612L28.2261 56.7268L28.3221 56.9923L28.4218 57.2386L28.5369 57.4926L28.6559 57.7274L28.7902 57.9583L28.9283 58.1777L29.0971 58.397L29.2506 58.5933L29.4309 58.7896L29.6189 58.9743L29.8223 59.1629L30.0218 59.3284L30.2443 59.49L30.4707 59.6478L30.7201 59.8017L30.9656 59.9364L31.215 60.0519L31.4606 60.1635L31.7215 60.2635L31.9747 60.3405L32.2318 60.4136L32.4889 60.4675L32.7536 60.5137L33.0107 60.5368L33.2793 60.5522H33.5478L33.8203 60.5445L34.0812 60.5137L34.3574 60.4752L34.6298 60.4213L34.9138 60.3559L62.4891 52.9706L62.7539 52.8821L63.0225 52.7975L63.1452 52.7436L63.2757 52.6974L63.5289 52.5858L63.763 52.4626L63.997 52.3279L64.2196 52.1817L64.4383 52.0316L64.6378 51.8584L64.8334 51.6891L65.0215 51.5005L65.2133 51.3081L65.29 51.1965L65.3015 51.1657L65.3284 51.1426L65.3744 51.0964L65.5394 50.8771L65.6967 50.6423L65.854 50.4075L65.9883 50.1574L66.1034 49.9072L66.2032 49.6571L66.3068 49.4069L66.3759 49.1414L66.4449 48.8912L66.4986 48.6257L66.5447 48.3794L66.5715 48.11L66.5869 47.8444V47.5827L66.5792 47.3134L66.5447 47.0363L66.5101 46.7669L66.4564 46.4859L66.395 46.2242L59.8647 21.8786L59.7765 21.5977L59.6806 21.3321L59.5808 21.0743L59.4695 20.8318L59.3468 20.5894L59.2125 20.3623L59.0667 20.1353L58.917 19.9313L58.7444 19.7235L58.5717 19.5272L58.3876 19.3309L58.1919 19.1616L57.9808 18.9884L57.7583 18.8345L57.5281 18.6767L57.2902 18.5343Z" fill="#1D1D1B"/>
<path fill-rule="evenodd" clip-rule="evenodd" d="M66.1998 40.2705L65.8046 40.3706L79.0801 45.7931L62.0637 57.9313L62.0215 58.016L62.0829 58.1083L76.4327 51.3581L76.5708 51.5235L83.9759 45.3159L67.4852 38.3848L66.3494 40.3206" fill="#1D1D1B"/>
<path fill-rule="evenodd" clip-rule="evenodd" d="M70.0595 47.1592L70.0864 47.2285L67.274 49.6338L67.2586 49.7762L54.2939 61.6758L62.0213 58.0159L61.9907 57.9851L62.0636 57.9312L79.08 45.793L66.2495 40.0703L65.2098 41.5096L66.2265 45.8469L66.6332 48.587L70.0595 47.1592Z" fill="#BC1E1A"/>
<path fill-rule="evenodd" clip-rule="evenodd" d="M58.9938 26.2433L58.9171 25.9932L58.8403 25.7623L58.6485 25.3158L58.5334 25.0965L58.4144 24.8925L58.2878 24.6962L58.1535 24.5192L57.9924 24.3306L57.8351 24.1574L57.6663 23.9881L57.4936 23.8303L57.2979 23.6725L57.1061 23.534L56.8912 23.3993L56.6802 23.2838L56.4461 23.153L56.2274 23.0529L55.7709 22.872L55.3028 22.7374L55.0687 22.6835L54.8423 22.6604L54.3551 22.6219L54.1172 22.6104L53.8831 22.6373L53.6299 22.6604L53.3882 22.6989L52.9047 22.8143L27.854 29.5069L27.5969 29.5723L27.3514 29.6569L27.1173 29.7416L26.8986 29.8532L26.4689 30.0803L26.2617 30.2034L26.0737 30.3535L25.8819 30.4921L25.7015 30.6576L25.5289 30.823L25.3716 31.0001L25.2104 31.181L25.0608 31.3849L24.9188 31.5889L24.7922 31.8121L24.5505 32.2508L24.4507 32.4702L24.3625 32.705L24.2781 32.9205L24.2243 33.1552L24.1399 33.6248L24.1016 34.0866L24.1054 34.5638L24.163 35.0372L24.2781 35.5298L30.018 56.9313L30.0794 57.1622L30.1561 57.3969L30.2443 57.6163L30.3518 57.8433L30.4554 58.0473L30.582 58.2513L30.7009 58.4437L30.8544 58.64L30.9925 58.8132L31.1614 58.9902L31.3225 59.1557L31.5105 59.3212L31.6947 59.4674L31.9019 59.6175L32.1129 59.7484L32.3354 59.8907L32.558 60.0062L32.7767 60.1101L32.9954 60.2025L33.2294 60.2871L33.4558 60.3564L33.6898 60.4218L33.9239 60.468L34.1694 60.5065L34.4035 60.5219L34.6452 60.5296H34.8793L35.1286 60.5219L35.3742 60.4988L35.6198 60.4603L41.3175 60.799L52.5594 62.3153L58.3377 54.4066L58.6485 54.1257L58.683 54.1026L59.3621 53.3137L59.7151 52.9404L60.0835 52.5786L60.4403 52.2207L60.8125 51.882L61.5875 51.2355L62.3779 50.6197L63.199 50.0578L64.0354 49.5344L64.469 49.2843L64.9102 49.0572V48.8533L64.8872 48.5415L64.8757 48.3837L64.8603 48.2375L64.8066 47.9258L64.7337 47.6294L58.9938 26.2433Z" fill="#FED9A4"/>
<path fill-rule="evenodd" clip-rule="evenodd" d="M70.0869 47.2285L70.0601 47.1592L66.6338 48.587L65.9431 48.8795H65.7973L65.6016 49.2297L64.911 48.8525V49.0565L64.4698 49.2835L64.0362 49.5337L63.1998 50.0571L62.3787 50.619L61.5883 51.2347L60.8133 51.8813L60.4411 52.22L60.0843 52.5779L59.7159 52.9396L59.3629 53.3129L58.6838 54.1019L58.6493 54.125L58.3385 54.4059L52.3262 62.7225L53.4542 62.2145L54.2945 61.6757L67.2592 49.7762L67.2745 49.6338L70.0869 47.2285Z" fill="#1D1D1B"/>
<path fill-rule="evenodd" clip-rule="evenodd" d="M47.7863 27.6204L47.4909 27.582L47.2184 27.5435L46.9499 27.4973L46.7005 27.455L46.2209 27.3434L45.9945 27.2741L45.795 27.2087L45.5878 27.1317L45.4036 27.047L45.2271 26.9585L45.0698 26.87L44.9087 26.7699L44.7705 26.6737L44.6439 26.5621L44.5327 26.4582L44.4214 26.3274L44.3255 26.2004L44.2372 26.0695L44.172 25.9425L44.1029 25.7886L44.0531 25.6385L44.0108 25.4884L43.9917 25.3383L43.9686 25.1613L43.9648 24.9958V24.8187L43.9917 24.6379L44.0224 24.4454L44.0646 24.2569L44.1183 24.0606L44.1873 23.8682L38.3093 24.049L38.3707 24.3762L38.4436 24.7071L38.4896 24.8534L38.551 25.0112L38.6815 25.3152L38.8349 25.5923L39.0038 25.8655L39.1918 26.108L39.4143 26.362L34.3535 26.5159L34.3957 26.7892L34.4609 27.0509L34.5415 27.3126L34.6336 27.5666L34.7295 27.7975L34.8561 28.0284L34.9828 28.2516L35.1439 28.471L35.2974 28.6711L35.4777 28.8635L35.6696 29.0444L35.8806 29.2214L36.107 29.3792L36.3487 29.5409L36.5942 29.6871L36.8666 29.8295L37.1391 29.9488L37.4383 30.0681L37.7414 30.1797L38.0714 30.2798L38.4052 30.3644L38.762 30.4491L39.1265 30.5184L39.5141 30.5838L39.8978 30.6338L40.316 30.6762L40.7342 30.7108L41.1754 30.7416L41.6243 30.7493L42.0963 30.7531L42.5797 30.757H43.0862L43.6502 30.7185L44.1797 30.6877L44.6861 30.6723L45.1657 30.68L45.607 30.6762L46.0214 30.6877L46.4089 30.7069L46.7695 30.7493L47.088 30.7839L47.3911 30.8339L47.6635 30.8878L47.9052 30.9494L48.1124 31.0225L48.2966 31.1072L48.4424 31.1957L48.5613 31.2958L48.4808 31.1919L48.3772 31.1033L48.2352 31.0033L48.0741 30.9263L47.8745 30.8339L47.652 30.757L47.3988 30.6723L47.1149 30.6069L46.8041 30.5261L46.4703 30.4568L46.0981 30.3837L45.7029 30.3259L45.277 30.2567L44.8243 30.2028L44.3408 30.1412L43.8344 30.095L43.5658 30.0565L43.3164 30.0296L43.067 29.9873L42.8368 29.9526L42.3955 29.8487L42.1845 29.791L41.9965 29.7371L41.8008 29.6678L41.6243 29.6024L41.4517 29.5216L41.2982 29.4562L41.1409 29.3638L40.9989 29.2792L40.8723 29.1868L40.7572 29.0983L40.6344 28.9867L40.5308 28.8828L40.4426 28.7635L40.3582 28.6595L40.2814 28.5248L40.2162 28.4055L40.1625 28.2747L40.1165 28.1515L40.0666 28.0053L40.0474 27.8706L40.0244 27.7205L40.0167 27.5743L40.0129 27.4165L40.0244 27.2587L40.0436 27.0855L40.0742 26.92L40.3505 27.0932L40.6536 27.2664L40.9759 27.4203L41.3174 27.5743L41.6857 27.7013L42.0656 27.8206L42.4684 27.9245L42.8905 28.0245L43.3317 28.0938L43.5619 28.1246L43.7998 28.1631L44.03 28.1862L44.2871 28.2131L44.7936 28.2631L45.0545 28.267L45.3192 28.2785L45.8717 28.2939L46.4396 28.2901L46.7312 28.2862H47.0343L47.5983 28.2478L48.1355 28.2247L48.6458 28.2054L49.1254 28.2131H49.5666L49.981 28.2208L50.3762 28.2401L50.733 28.2862L51.0553 28.3209L51.3546 28.3632L51.627 28.4209L51.8649 28.4864L52.0721 28.5595L52.2562 28.6403L52.402 28.7327L52.5248 28.8327L52.4366 28.7211L52.3291 28.6326L52.191 28.5364L52.0222 28.4594L51.8303 28.3632L51.6078 28.2901L51.3507 28.2054L51.0706 28.14L50.7599 28.0592L50.426 27.9861L50.0539 27.9168L49.6587 27.8591L49.2328 27.7898L48.78 27.7321L48.2966 27.6666L47.7863 27.6204Z" fill="#1D1D1B"/>
<path fill-rule="evenodd" clip-rule="evenodd" d="M31.1804 32.7051L30.9694 32.7744L30.4783 32.9475L30.0179 33.14L29.5689 33.3362L29.1622 33.5556L28.767 33.7711L28.4064 34.0174L28.0649 34.2637L27.758 34.537L27.4625 34.8064L27.2016 35.095L26.9599 35.3913L26.7489 35.7031L26.5532 36.0148L26.3959 36.3496L26.2578 36.696L26.1465 37.0616L26.6107 36.7575L27.0597 36.4843L27.4894 36.2226L27.9076 35.9994L28.299 35.7877L28.4831 35.6877L28.6788 35.5991L28.863 35.5068L29.0395 35.4298L29.2121 35.3528L29.3925 35.2874L29.7109 35.1566L30.0179 35.0527L30.3056 34.968L30.4399 34.9295L30.5819 34.9026L30.7008 34.8756L30.8313 34.8564L30.9464 34.8448H31.0692L31.1804 34.8333L31.2917 34.8448L31.3953 34.8525L31.4989 34.8756L32.2969 35.0065L33.0912 35.172L33.8585 35.3528L34.2307 35.4452L34.6106 35.553L34.9751 35.6569L35.3434 35.7723L36.0647 36.0148L36.7745 36.2726L37.116 36.4073L37.4652 36.5536L38.1328 36.8422L38.4512 36.9923L38.7812 37.1539L39.4181 37.4926L39.7289 37.6619L40.0435 37.8505L40.339 38.0275L40.6421 38.2238L41.2291 38.6202L41.8008 39.0359L42.0732 39.2475L42.3571 39.4746L42.1845 39.2398L42.0042 39.0089L41.6128 38.5548L41.3903 38.32L41.1677 38.1007L40.9337 37.8813L40.6881 37.6619L40.1586 37.2155L39.8747 37L39.5869 36.7883L39.2838 36.569L38.9731 36.3573L38.3131 35.9455L37.9601 35.7261L37.5995 35.5222L37.2273 35.3182L36.8436 35.1181L36.4446 34.9141L36.0379 34.7101L35.6196 34.5062L35.2014 34.3138L34.3074 33.9135L33.847 33.7172L33.3789 33.5287L32.8955 33.3362L32.4005 33.1477L31.8941 32.9591L31.3761 32.7744L31.1804 32.7051Z" fill="#1D1D1B"/>
<path fill-rule="evenodd" clip-rule="evenodd" d="M36.3832 37.9307L32.4582 38.0461L31.9478 38.0692L31.7061 38.1L31.4759 38.1462L31.2534 38.1924L31.0424 38.2655L30.8313 38.3309L30.6356 38.4271L30.252 38.6195L30.0716 38.7389L29.9105 38.8735L29.7417 39.0082L29.592 39.1622L29.4462 39.3277L29.3158 39.5047L29.147 39.7164L29.0088 39.9434L28.8899 40.1782L28.7901 40.4168L28.7057 40.6593L28.6405 40.9094L28.5983 41.1673L28.5791 41.4328L28.7172 42.7836L28.7326 42.8452L29.7225 46.509L29.7378 46.5244L30.2827 47.879L30.44 48.1176L30.6203 48.3601L30.816 48.5872L31.027 48.8142L31.2419 49.0259L31.4874 49.2299L31.7445 49.4223L32.0169 49.6109L32.2356 49.7455L32.4582 49.8687L32.9109 50.0881L33.3713 50.2613L33.6092 50.3305L33.8433 50.3921L34.0773 50.4383L34.3075 50.4768L34.5454 50.4999L34.7948 50.5191H35.0403L35.2859 50.5114L35.5353 50.4922L35.7885 50.4691L39.6024 49.8841L39.8364 49.8379L40.0704 49.784L40.3007 49.7225L40.4081 49.6801L40.527 49.6493L40.6268 49.6032L40.7381 49.5647L40.9452 49.4685L41.0412 49.4184L41.1409 49.3684L41.3481 49.2606L41.5246 49.1336L41.5438 49.1105L41.563 49.0952L41.6129 49.0644L41.7049 49.0028L41.8699 48.8604L42.0426 48.7142L42.0733 48.6641L42.0886 48.641L42.1116 48.6256L42.1884 48.5487L42.3495 48.3793L42.4915 48.1985L42.6296 48.0099L42.7447 47.8059L42.8522 47.6096L42.9481 47.4095L42.9634 47.3556L42.9864 47.3056L43.0363 47.2132L43.0709 47.1055L43.0824 47.0478L43.1092 47.0016L43.1706 46.8015L43.2167 46.5898L43.2589 46.3858L43.2857 46.1664L43.2972 45.9471L43.3087 45.7277V45.5084L43.2934 45.3929L43.2857 45.2813L43.2589 45.0658L43.2243 44.831L43.1783 44.6117L42.5567 42.3487L42.3994 41.8869L42.2152 41.4443L42.1001 41.225L41.9812 41.021L41.7165 40.6208L41.4018 40.2398L41.0565 39.8703L40.8685 39.6933L40.6728 39.5201L40.4733 39.3585L40.2584 39.2007L39.7904 38.8774L39.3223 38.6157L39.0767 38.4887L38.8427 38.3886L38.6048 38.2886L38.3669 38.2078L38.1175 38.1308L37.8719 38.0692L37.6264 38.0153L37.3808 37.9845L36.882 37.9307H36.3832Z" fill="#1D1D1B"/>
<path fill-rule="evenodd" clip-rule="evenodd" d="M55.6788 32.4276L55.322 32.1313L55.1416 32.0005L54.969 31.8812L54.6083 31.6733L54.428 31.5771L54.2553 31.5079L53.8985 31.377L53.5378 31.2962L53.1772 31.2577L52.9968 31.25L52.828 31.2654L52.4482 31.2962L52.0914 31.3847L51.9033 31.4386L51.723 31.5079L51.3623 31.681L50.9863 31.8812L50.7983 32.0005L50.618 32.139L50.2458 32.4392L49.8852 32.7817L49.5667 33.3359L49.2751 33.8824L49.0027 34.4135L48.7571 34.9446L48.619 35.2178L48.4962 35.4987L48.3658 35.7643L48.2622 36.0375L48.1432 36.2954L48.0396 36.5609L47.844 37.0843L47.6636 37.5769L47.514 38.0695L47.3835 38.5468L47.2799 39.0086L47.1879 39.4435L47.1495 39.6513L47.1265 39.8706L47.0958 40.0746L47.0766 40.2863L47.0574 40.6942L47.0459 41.0752L47.0728 41.4485L47.1111 41.8103L47.1802 42.1605L47.2339 41.691L47.3145 41.2407L47.4142 40.7789L47.5293 40.3248L47.6636 39.8706L47.8133 39.4204L47.9859 38.9662L48.1816 38.5198L48.3773 38.0695L48.6037 37.6154L48.8454 37.1613L49.1101 36.7187L49.3825 36.2607L49.6818 35.8259L50.0003 35.3833L50.3417 34.9446L50.664 34.5058L51.0324 34.094L51.1398 33.967L51.2664 33.8516L51.4161 33.7323L51.6079 33.6245L51.8074 33.5129L52.0415 33.4052L52.2909 33.2974L52.571 33.2012L52.8741 33.0934L53.2002 32.9895L53.5455 32.8933L53.9254 32.7971L54.3282 32.7047L54.758 32.6085L55.203 32.5162L55.6788 32.4276Z" fill="#1D1D1B"/>
<path fill-rule="evenodd" clip-rule="evenodd" d="M55.9515 34.7949L55.8671 34.8757L55.7711 34.945L55.399 35.2567L55.046 35.5684L54.6968 35.8725L54.3669 36.188L54.0331 36.4767L53.7146 36.773L53.4038 37.0617L53.1122 37.3503L52.8168 37.6235L52.5329 37.8968L52.2643 38.1623L52.0034 38.4356L51.7463 38.6934L51.5007 38.9513L51.2667 39.2014L51.0518 39.4516L50.8216 39.6863L50.6183 39.9211L50.4188 40.1481L50.2346 40.3791L50.0504 40.5907L49.8854 40.8101L49.7204 41.0218L49.5708 41.2334L49.425 41.4258L49.2907 41.6221L49.1603 41.8107L49.049 42.007L48.9416 42.184L48.8456 42.3649L48.7536 42.5381L48.6807 42.7151L49.1756 42.3495L49.6897 42.0108L50.2307 41.6914L50.7986 41.3874L51.3856 41.0987L51.9957 40.8255L52.6288 40.5753L53.2849 40.3521L53.6148 40.2328L53.9602 40.1289L54.6585 39.9365L55.376 39.7556L55.7443 39.6709L56.1241 39.5978L56.8915 39.4516L57.6857 39.3284L58.4953 39.2245L59.3279 39.1398L59.4852 38.9974L59.631 38.8666L59.7384 38.7396L59.8267 38.6203L59.8766 38.5087L59.9149 38.4048L59.9264 38.3047L59.9149 38.2162L59.8689 38.1238L59.8075 38.0353L59.7154 37.9583L59.5965 37.8891L59.4468 37.8198L59.2857 37.7659L59.09 37.712L58.879 37.662L58.4646 37.6312L58.0694 37.6158L57.6857 37.6004H56.9337L56.5692 37.6235L56.2201 37.6466L55.8824 37.6851L55.5448 37.7274L55.2263 37.7813L54.9079 37.8352L54.6086 37.9045L54.3055 37.9737L54.0215 38.07L53.7415 38.1623L53.4806 38.2701L57.0642 36.1534L57.2445 35.961L57.4056 35.7801L57.5553 35.6069L57.6972 35.4607L57.8123 35.3144L57.9121 35.1797L58.0042 35.0527L58.0924 34.945L58.1538 34.8103L58.1922 34.6948L58.2037 34.5948L58.196 34.5062L58.1538 34.437L58.1193 34.4062L58.0924 34.3908L57.9927 34.3523L57.8814 34.3446L57.7279 34.3369H57.6397L57.5553 34.3523L57.3558 34.3754L57.1256 34.4293L56.9951 34.4524L56.8685 34.4909L56.5846 34.5794L56.2814 34.6794L55.9515 34.7949Z" fill="#1D1D1B"/>
<path fill-rule="evenodd" clip-rule="evenodd" d="M39.4069 39.8858L38.8429 39.6165L38.5628 39.4971L38.2904 39.3971L37.7302 39.2316L37.4424 39.1623L37.1662 39.1238L36.8669 39.0854L36.5868 39.0584L36.2952 39.0469L36.0151 39.0507L35.7159 39.0584L35.4319 39.0931L34.8526 39.1931L34.5495 39.2547L34.2694 39.3317L33.997 39.4202L33.736 39.5202L33.479 39.6241L33.2373 39.7473L33.007 39.882L32.7883 40.0282L32.5658 40.1783L32.3663 40.34L32.1706 40.5132L31.9903 40.7017L31.8061 40.8865L31.645 41.0981L31.4877 41.3175L31.3534 41.5522L31.2229 41.787L31.104 42.0218L31.0042 42.2527L30.916 42.5067L30.7817 42.9877L30.7433 43.2379L30.7203 43.4957L30.6973 43.742L30.7011 43.996L30.7587 44.5194L30.797 44.7773L30.8699 45.0428L30.9428 45.3084L31.0426 45.5893L31.1193 45.801L31.2152 46.0204L31.4224 46.4398L31.526 46.6284L31.645 46.817L31.902 47.1749L32.0363 47.3404L32.1821 47.5097L32.5044 47.8407L32.8382 48.137L33.0224 48.2756L33.2181 48.4257L33.4022 48.5488L33.6094 48.6835L34.0353 48.9337L34.5456 49.18L34.795 49.2916L35.0636 49.3916L35.3168 49.4802L35.5816 49.5571L36.1149 49.6803L36.4142 49.7226L36.7249 49.7611L37.0357 49.7688L37.3542 49.7765L37.665 49.7534L37.9796 49.7303L38.2904 49.688L38.6088 49.6341L38.8928 49.5648L39.1729 49.484L39.4414 49.3916L39.7023 49.2993L39.9517 49.18L40.0707 49.1222L40.1973 49.0645L40.3047 48.9952L40.4275 48.9337L40.5349 48.8605L40.65 48.799L40.8572 48.6412L41.0567 48.4795L41.2447 48.2987L41.4366 48.1178L41.6016 47.9254L41.7704 47.7214L41.9277 47.502L42.0735 47.2827L42.2001 47.0402L42.3191 46.8054L42.4188 46.5591L42.5071 46.3244L42.5761 46.0742L42.6337 45.8318L42.6759 45.5816L42.7143 45.3315L42.7258 45.0659V44.8158L42.7028 44.5502L42.6759 44.3001L42.6299 44.0345L42.5953 43.8998L42.5761 43.7805L42.5071 43.5111L42.4188 43.2456L42.3076 42.9723L42.1886 42.7145L42.0543 42.4566L41.9277 42.2142L41.7781 41.9717L41.6208 41.7447L41.4481 41.5215L41.2678 41.3098L41.0759 41.0981L40.8687 40.9019L40.65 40.7094L40.4275 40.5285L40.1819 40.3515L39.9325 40.186L39.6755 40.0282L39.4069 39.8858Z" fill="white"/>
<path fill-rule="evenodd" clip-rule="evenodd" d="M37.2511 40.9981L37.1552 40.7095L37.0784 40.4516L36.7254 40.3977L36.3916 40.367L36.0617 40.3516L35.7547 40.3554L35.4439 40.3785L35.1523 40.4247L34.8722 40.4901L34.6113 40.5748L34.6382 40.8095L34.6766 41.0674L34.7341 41.3406L34.8185 41.6447L34.9029 41.9487L35.0065 42.2527L35.1101 42.5375L35.2252 42.8108L35.3442 43.0609L35.4746 43.2995L35.6089 43.5266L35.7547 43.7421L35.8007 43.7998L35.8583 43.8806L35.889 43.9191L35.9274 43.9653L36.0655 44.1115L36.1346 44.1693L36.1998 44.2308L36.3456 44.3232L36.4684 44.3848L36.5297 44.4002L36.5643 44.4117L36.6027 44.4271L36.7254 44.4348L36.7907 44.4271L36.8214 44.4194H36.8597L36.9134 44.3848L36.9748 44.3617L37.0209 44.3232L37.0784 44.2924L37.1705 44.1885L37.2089 44.1269L37.2588 44.0731L37.2894 43.9961L37.3278 43.9191L37.3393 43.8691L37.3547 43.8306L37.3815 43.7421L37.4314 43.5497L37.4429 43.4419L37.4659 43.3341V43.2995L37.489 43.2841L37.5005 43.0263L37.512 42.7607L37.5005 42.6222V42.4875L37.4775 42.2104L37.4391 41.9102L37.393 41.6139L37.3547 41.4561L37.3201 41.3098L37.2511 40.9981Z" fill="white"/>
<path fill-rule="evenodd" clip-rule="evenodd" d="M48.7579 46.4165L48.6313 46.605L48.4893 46.7898L48.3243 46.9783L48.1555 47.1823L47.9598 47.3709L47.8601 47.4633L47.8102 47.5094L47.7603 47.5633L47.5301 47.7519L47.2961 47.9559L47.0352 48.1444L46.7551 48.3292L46.4711 48.5177L46.1642 48.7217L45.8304 48.9064L45.4927 49.095L45.1321 49.2836L44.7676 49.4837L45.2971 49.3375L45.7959 49.2028L46.2716 49.0719L46.7282 48.9488L47.1426 48.8218L47.5301 48.7063L47.8946 48.587L48.2361 48.487L48.5354 48.3792L48.8154 48.2753L49.0648 48.1829L49.2874 48.0944L49.4716 48.002L49.6289 47.9251L49.7631 47.8443L49.8744 47.775V47.7596L49.8783 47.7519L49.8936 47.7365L49.9243 47.7057L49.978 47.6441L49.9972 47.6056L50.0164 47.571L50.0509 47.5094L50.0624 47.4325L50.0739 47.3709V47.3016L50.0624 47.2362L50.0432 47.1592L50.0125 47.0899L49.9627 47.0091L49.9166 46.9399L49.7785 46.7859L49.6902 46.7051L49.6442 46.6666L49.6058 46.6358L49.4562 46.4934L49.3219 46.3857L49.1991 46.3049L49.0994 46.2664L48.9881 46.251L48.9037 46.2741L48.8231 46.3241L48.7579 46.4165Z" fill="#1D1D1B"/>
<path fill-rule="evenodd" clip-rule="evenodd" d="M48.0059 56.2116L48.0903 56.5541L48.144 56.5618L48.2207 56.5695H48.3013L48.4011 56.5772L48.5008 56.5695L48.6198 56.5618L48.7464 56.5464L48.8845 56.5387L49.0648 56.5002L49.272 56.4541L49.4792 56.3963L49.7209 56.3425L49.9627 56.2732L50.2351 56.2039L50.5267 56.1192L50.8336 56.0307L50.7607 55.8383L50.7223 55.6574V55.4842L50.7377 55.3149L50.7991 55.1417L50.872 54.9531L50.9833 54.78L51.1137 54.6029L51.2825 54.4298L51.4629 54.2527L51.6739 54.0949L51.8849 53.9487L52.1305 53.814L52.3722 53.6793L52.6369 53.5792L52.9132 53.4792L53.2163 53.3984L53.4964 53.3137L53.765 53.2598L54.0067 53.2059L54.2331 53.1828L54.4287 53.1559L54.6091 53.1521L54.7587 53.1559L54.8968 53.1828L55.0081 53.1867L55.1347 53.1828L55.2575 53.1521L55.3841 53.1059L55.5107 53.0251L55.6335 52.9404L55.7563 52.8211L55.8906 52.6979L56.1361 52.4016L56.3587 52.1091L56.5582 51.8205L56.7385 51.5434L56.7424 51.2663L56.7539 51.0238L56.7424 50.7814L56.7193 50.5736L56.681 50.3619L56.6311 50.1656L56.5697 49.9886L56.4968 49.8231L56.4085 49.6576L56.3088 49.5268L56.1898 49.3921L56.0632 49.292L55.9174 49.1881L55.7678 49.1111L55.599 49.0419L55.4225 48.9957L55.2268 48.9418L55.0541 48.9033L54.893 48.8687L54.7434 48.8533L54.5899 48.8379H54.4671L54.3443 48.8456L54.2407 48.8687L54.1333 48.8918L54.0451 48.9341L53.9645 48.9726L53.9031 49.0342L53.8417 49.088L53.7995 49.165L53.7534 49.2458L53.7419 49.3459L53.7074 49.4652L53.6882 49.596L53.669 49.7461L53.6652 49.9232L53.6153 50.1502L53.5539 50.4004L53.5079 50.5235L53.4542 50.6505L53.3276 50.9238L53.1511 51.197L52.9669 51.4934L52.7329 51.7897L52.4835 52.1091L52.188 52.4324L51.8581 52.7672L51.4974 53.1097L51.3132 53.2906L51.1137 53.4792L50.8988 53.6562L50.6801 53.8448L50.2312 54.2335L49.7439 54.626L49.226 55.0417L49.0495 55.1648L48.8922 55.2957L48.7464 55.415L48.6121 55.5304L48.497 55.6228L48.3895 55.7267L48.3013 55.8114L48.2207 55.9076L48.144 55.9845L48.0903 56.0615L48.0327 56.1346L48.0059 56.2116Z" fill="#1D1D1B"/>
<path fill-rule="evenodd" clip-rule="evenodd" d="M24.5619 58.9779L15.1693 53.3398L3.0219 57.7002L1.54088 74.5681L1.5332 74.8876V75.0454L1.54855 75.207L1.57157 75.4995L1.62912 75.7881L1.68284 76.046L1.77109 76.3038L1.80562 76.4193L1.85933 76.5463L1.97828 76.7695L2.09722 76.9658L2.24685 77.162L2.31592 77.2467L2.40033 77.3391L2.58066 77.5046L2.66891 77.5661L2.76867 77.6393L2.97969 77.7701L3.20607 77.8856L3.45162 77.9895L8.95749 79.4173L8.99203 75.3571L22.5744 78.8977L23.2612 78.0433L23.9212 77.2236L24.5274 76.4116L25.1068 75.6226L25.6363 74.8337L25.8895 74.445L26.1312 74.0679L26.584 73.3097L26.7988 72.9364L26.9983 72.5746L27.1863 72.2013L27.3667 71.8434L27.6966 71.1314L27.8463 70.7735L27.9844 70.4272L28.2338 69.7498L28.441 69.0725L28.5254 68.7415L28.6021 68.4144L28.7287 67.7679L28.7748 67.4523L28.8132 67.1482L28.8362 66.8365L28.8554 66.5248V65.9206L28.8362 65.6281L28.8132 65.3395L28.7364 64.766L28.6098 64.1965L28.5331 63.9232L28.4487 63.6577L28.2415 63.1189L28.1225 62.861L27.9997 62.6109L27.8616 62.353L27.712 62.1029L27.382 61.6103L27.2017 61.3717L27.0137 61.1369L26.607 60.6828L26.1581 60.2287L25.9087 60.0093L25.6593 59.7976L25.1298 59.3781L24.8497 59.1742L24.5619 58.9779Z" fill="#FED9A4"/>
<path fill-rule="evenodd" clip-rule="evenodd" d="M31.2922 68.061V68.0456L31.3305 67.5453L31.3536 67.0604L31.3459 66.5755L31.3229 66.1137L31.2692 65.6442L31.1963 65.1939L31.1003 64.7475L30.9967 64.3164L30.8433 63.8777L30.6898 63.4582L30.5018 63.0426L30.2946 62.6462L30.0605 62.2382L29.815 61.8495L29.5426 61.4647L29.251 61.0991L28.9248 60.6527L28.5795 60.2216L28.2035 59.8021L27.8083 59.4057L27.3671 59.0055L26.9067 58.6206L26.4155 58.2473L25.8976 57.8971L25.8093 57.8279L20.2114 54.4758V52.8671L20.4454 52.7132L20.6795 52.567L20.902 52.4015L21.1245 52.2437L21.3356 52.0705L21.3816 52.0243L21.4353 51.9858L21.5466 51.905L21.7538 51.7318L21.9533 51.5664L22.1451 51.3778L22.3331 51.2007L22.3715 51.1469L22.4176 51.1007L22.5135 51.0083L22.7015 50.8197L22.8741 50.6158L23.0468 50.4195L23.2079 50.2155L23.2885 50.1155L23.3691 50.0231L23.5111 49.8037L23.584 49.6921L23.6607 49.5921L23.8027 49.365L23.9408 49.1456L24.0674 48.9109L24.1288 48.7954L24.2017 48.6877L24.3168 48.4529L24.4473 48.2259L24.547 47.9757L24.6583 47.7332L24.7504 47.4754L24.854 47.2252L24.9384 46.9597L24.9537 46.8904L24.9767 46.825L25.0266 46.7018L25.1033 46.4325L25.1187 46.3632L25.1417 46.3016L25.1878 46.1785L25.3105 45.6166L25.4103 45.0624L25.4832 44.5159L25.5407 43.9771L25.5561 43.4306L25.5484 42.8918L25.5177 42.3607L25.4602 41.8373L25.3681 41.3063L25.2491 40.7829L25.111 40.2672L24.9422 39.7592L24.7465 39.2512L24.5317 38.7509L24.2784 38.2505L24.006 37.7579L23.7489 37.3423L23.4919 36.9421L23.2195 36.5572L22.9355 36.207L22.7283 35.9261L22.5288 35.6605L22.3178 35.395L22.1029 35.1525L21.8766 34.9024L21.6579 34.6753L21.4238 34.4482L21.1974 34.2366L20.4454 33.6516L20.0771 33.3784L19.7203 33.1359L19.3519 32.8934L18.9951 32.6664L18.2968 32.27L17.9515 32.0891L17.6445 31.939L17.5064 31.8697L17.3836 31.8159L17.257 31.762L17.1572 31.7235L17.046 31.6773L16.9616 31.6427L16.8081 31.6042L16.6776 31.5811H16.6239L16.5894 31.5965L16.7314 33.8363L16.739 33.8748L16.8311 41.695L13.9995 42.3415L11.6475 41.7257V34.5252L11.7089 31.4541L11.1219 31.6003L10.6193 31.7735L10.1281 31.9929L9.64471 32.243L9.17661 32.524H9.16127L9.11522 32.5548H9.09604L9.12673 32.5471L8.97326 32.6087L8.91187 32.624L8.85048 32.6548L8.69317 32.7395L8.60109 32.7857L8.49749 32.8473L8.3939 32.9088L8.28263 32.9897L8.20205 33.0281L7.71094 33.3168L7.25052 33.6362L6.80544 33.9633L6.39107 34.3135L5.99587 34.6753L5.61602 35.0563L5.26303 35.4565L5.09038 35.6605L4.9369 35.8799L4.62228 36.3109L4.33452 36.7535L4.06594 37.2153L3.82038 37.7079L3.59401 38.2005L3.39833 38.7239L3.218 39.255L3.06836 39.8092L2.93023 40.3557L2.83048 40.9099L2.78443 41.1754L2.7499 41.4486L2.71153 41.9951L2.68468 42.5262V43.065L2.72304 43.5961L2.79211 44.1349L2.87268 44.6506L2.98779 45.174L3.12975 45.6897L3.20649 45.9475L3.30241 46.2131L3.49041 46.7134L3.71679 47.2291L3.97002 47.7294L4.25778 48.2374L4.50334 48.6338L4.77192 49.0225L5.03282 49.4073L5.32442 49.7729L5.64288 50.2117L5.97669 50.6312L6.32968 51.0314L6.71336 51.4201L7.09705 51.7703L7.51142 52.1128L7.92197 52.4246L8.37088 52.7286L8.35937 54.5258L3.12975 56.4078L2.93407 56.4809L2.76525 56.5809L2.62329 56.7041L2.55039 56.7772L2.49283 56.8657L2.38157 57.012L2.31634 57.1852L2.25879 57.366L2.23576 57.5662L0.777765 74.3841L0.754743 74.4457V74.5149L0.74707 74.819L0.754743 75.1153L0.770091 75.4039L0.800786 75.6849L0.835318 75.9504L0.881359 76.216L0.935076 76.4661L1.01565 76.7163L1.08088 76.9433L1.1768 77.1627L1.27272 77.3744L1.38782 77.5783L1.50676 77.7669L1.63338 77.9555L1.77534 78.1287L1.93265 78.2903L2.10915 78.5789L2.32018 78.8522L2.43144 78.9792L2.5619 79.1023L2.68468 79.2178L2.8228 79.3333L2.95709 79.4256L3.10289 79.5257L3.25253 79.6104L3.41368 79.7027L3.75132 79.8605L3.92781 79.9298L4.12349 79.999H4.18488L4.21941 80.0067L8.15218 81.0304L8.1445 82.3043L7.66106 82.5929L7.1968 82.9124L6.97427 83.0701L6.7594 83.2433L6.34886 83.5936L5.94599 83.9553L5.57382 84.3363L5.22083 84.7365L4.90237 85.1522L4.59159 85.5794L4.29999 86.0258L4.03141 86.4876L3.90863 86.7224L3.8012 86.9725L3.57099 87.4651L3.37531 87.9808L3.28322 88.2387L3.20265 88.5119L3.05301 89.0661L2.91105 89.6126L2.81129 90.1668L2.76141 90.4323L2.73455 90.7056L2.68851 91.2521L2.66165 91.7832V92.3219L2.70002 92.853L2.76525 93.3841L2.84582 93.8998L2.96093 94.4232L3.10289 94.9389L3.17963 95.1968L3.27555 95.4623L3.45972 95.9626L3.68993 96.4783L3.93932 96.9786L4.23092 97.4866H4.22325L4.46497 97.883L4.72588 98.2794L4.99445 98.6527L5.27071 99.0222L5.65823 99.5379L6.06877 100.038L6.28363 100.269L6.51001 100.504L6.74022 100.723L6.9781 100.943L7.45771 101.351L7.96417 101.724L8.22124 101.897L8.49366 102.07L9.05383 102.397H9.05767L9.07686 102.413L9.0922 102.42L9.13825 102.451H9.16127L9.238 102.49L11.0452 103.367L11.0835 101.57L11.0452 101.562V101.531L11.0682 101.524V101.374L11.0835 101.258L11.0912 101.227L11.1065 100.369L11.1219 99.534L11.1372 98.7143L11.1564 97.9176L11.1718 97.1364L11.1871 96.3783L11.2025 95.6355L11.2255 94.9235L14.3947 94.2038L17.0613 94.962L17.115 100.415V100.542L17.1304 100.635V100.696L17.1457 100.766H17.1189L17.1649 103.34L19.3212 102.536L19.3059 102.52H19.3826L19.5054 102.482L19.5783 102.443L19.6742 102.39L19.7855 102.316L19.8852 102.263L20.0003 102.209H20.0195L20.1308 102.132L20.1845 102.093L20.2459 102.062L20.4761 101.924L20.691 101.766L20.8022 101.689L20.8598 101.651L20.9212 101.62L20.9672 101.574L21.0209 101.535L21.1322 101.454L21.3432 101.3L21.7499 100.973L21.9418 100.796L22.1298 100.623L22.4981 100.265L22.6708 100.069L22.8434 99.8804L22.9202 99.7803L23.0046 99.6841L23.1773 99.4955L23.2502 99.3878L23.3269 99.2877L23.4765 99.0837L23.6185 98.8721L23.7605 98.6681L23.8909 98.441L24.0252 98.2255L24.148 97.9985L24.2708 97.7791L24.382 97.5367L24.4933 97.3019L24.5393 97.1749L24.5585 97.1133L24.593 97.0594L24.7043 96.8247L24.8002 96.5745L24.8923 96.3321L24.9077 96.2628L24.9307 96.2012L24.9767 96.0742L25.065 95.8241V95.7933L25.111 95.6047L25.1647 95.4161L25.2875 94.8542L25.3911 94.3001L25.4678 93.7536L25.5254 93.2186L25.5407 92.6722L25.5331 92.1334L25.5024 91.6023L25.4448 91.0789L25.3527 90.5478L25.2338 90.0244L25.0957 89.5087L24.9269 89.0007L24.7312 88.4927L24.5163 87.9924L24.2631 87.4921L23.9907 86.9995H23.9983L23.7413 86.5838L23.4727 86.1874L23.3346 85.9912L23.2003 85.8141L22.9202 85.4639L22.7705 85.2523L22.6286 85.0598L22.3255 84.675L22.007 84.3094L21.8382 84.1285L21.6847 83.9668L21.3356 83.6282L21.1591 83.4627L20.9864 83.3165L20.7984 83.1587L20.6181 83.0201L20.2459 82.7469L20.2344 80.1222L23.3614 80.9342H23.3998L23.4458 80.9419L23.5418 80.9573L23.7298 80.965L23.9178 80.9496L24.1096 80.9188L24.1326 80.9034L24.2094 80.865L24.2247 80.8496V80.8419H24.2477L24.2938 80.8265L24.359 80.7803L24.4396 80.7418L24.5777 80.6341L24.6391 80.5725L24.6736 80.5417L24.689 80.5263V80.5186H24.712V80.5032L24.7273 80.5148L25.464 79.618L25.817 79.1793L26.1623 78.7406L26.4923 78.3019L26.8107 77.8747L27.417 77.0396L27.7009 76.6162L27.9733 76.2044L28.2419 75.7965L28.499 75.3924L28.7368 74.9883L28.9747 74.5881L29.4083 73.8145L29.604 73.422L29.7881 73.041L30.1335 72.2828L30.2908 71.9095L30.4404 71.5439L30.5747 71.1744L30.6975 70.8165L30.8087 70.4548L30.9085 70.0969L30.9929 69.7467L31.0696 69.4003L31.1963 68.723L31.2423 68.3843L31.2807 68.0572M10.2433 32.5317L10.2893 32.5548L10.2816 32.5471L10.2433 32.5317ZM21.3548 37.4693L21.5274 37.7425L21.7077 38.0312L21.9226 38.4276L22.1298 38.8355L22.3063 39.2512L22.4751 39.6745L22.6094 40.0901L22.7245 40.5096L22.8089 40.9406L22.8857 41.3794L22.9279 41.8104L22.9586 42.2491V42.6879L22.947 43.1304L22.9048 43.5692L22.8473 44.0233L22.7629 44.4774L22.6631 44.9392L22.5902 45.1586L22.5288 45.3857L22.4521 45.5973L22.3792 45.8167L22.2948 46.0207L22.218 46.2323L22.1221 46.4363L22.0722 46.5364L22.0339 46.6441L21.9341 46.8327L21.8766 46.9251L21.8344 47.029L21.7269 47.2137L21.6694 47.3061L21.6233 47.4061L21.5006 47.5832L21.3854 47.7717L21.1437 48.1296L21.0056 48.2951L20.8713 48.4645L20.5797 48.7916L20.2689 49.1033L20.2229 49.1379L20.1845 49.1764L20.1078 49.2534L19.9505 49.4073L19.5975 49.6921L19.5054 49.7537L19.4594 49.7845L19.421 49.823L19.2483 49.9615L19.0526 50.0885L18.8608 50.2194L18.669 50.3464L18.5654 50.4079L18.4733 50.4811L18.2201 50.6235L18.032 50.7158L18.0167 50.7312H18.0052L17.9131 50.7813L17.7942 50.8813L17.7481 50.9429L17.7174 51.0199L17.6829 51.066L17.6752 51.1199L17.6522 51.1507L17.6369 51.2816V51.3585L17.6484 53.7177L16.0868 52.7671L15.941 52.694L15.8028 52.6786H15.6455L15.5074 52.7132L10.9799 54.3373V52.2937L10.9953 52.2706L10.9799 52.1398L10.9416 52.0243L10.907 51.955L10.8917 51.9204L10.8303 51.8357L10.7727 51.7703L10.6998 51.7087L10.6346 51.6626L10.5962 51.6549L10.5617 51.6472L10.4274 51.5779L10.4121 51.5394L10.4236 51.5163L10.4044 51.3816L10.3737 51.2739L10.3507 51.22L10.3392 51.1969L10.3162 51.1738L10.2548 51.0853L10.1934 51.0237L10.1205 50.9621L10.0553 50.916L10.0207 50.9006L9.9977 50.8929L9.75598 50.7774L9.53344 50.6696H9.5296L9.15359 50.458L8.8006 50.2309L8.45145 49.9885L8.12916 49.746L7.8107 49.4728L7.50375 49.1841L7.20831 48.8762L6.93206 48.5645L6.58291 47.9949L6.46013 47.7833L6.34886 47.5793L6.13784 47.1714L5.94599 46.748L5.86158 46.5402L5.79635 46.3362L5.65439 45.9129L5.53929 45.4934L5.48173 45.2741L5.44337 45.0624L5.38198 44.6429L5.32442 44.2042L5.3014 43.7731V43.5461V43.3267L5.32442 42.888L5.36663 42.4339L5.42802 41.999L5.51243 41.5487L5.62753 41.1023L5.73113 40.6982L5.85774 40.3133L5.99203 39.94L6.31817 39.2204L6.4985 38.8779L6.69418 38.543L6.9052 38.2313L7.11623 37.9119L7.36179 37.6155L7.61118 37.3269L7.88743 37.0537L8.15985 36.7804L8.45529 36.5226L8.76223 36.2724L9.08837 36.0454V42.7456L9.11139 42.8533L9.15743 42.9457L9.23033 43.0496L9.29172 43.1266L9.37613 43.1959L9.46821 43.2497L9.58716 43.2882L9.64855 43.3113V43.3921L9.65622 43.4999L9.67924 43.6115L9.72144 43.7077L9.79435 43.8078L9.85573 43.8886L9.94782 43.9579L10.0399 44.0117L10.155 44.0502L14.3947 45.1586L14.5405 45.174L14.7017 45.1586L18.9337 44.1965L19.045 44.158L19.091 44.1349L19.114 44.1195L19.1447 44.1118L19.1639 44.0887L19.1869 44.0733L19.2291 44.0425L19.2713 43.9964L19.3136 43.9579L19.3251 43.9271L19.3404 43.904L19.3749 43.8578V43.827L19.3941 43.8039L19.4248 43.7577V43.6962L19.444 43.6423L19.4632 43.5307L19.3634 35.7298L19.6358 35.903L19.9083 36.0992L20.1653 36.3032L20.4224 36.5226L20.6641 36.7419L20.9058 36.9844L21.1361 37.2268L21.3663 37.4924L21.3548 37.4693ZM27.5551 62.2652L27.7162 62.523L27.8736 62.7963L28.0117 63.0695L28.146 63.3504L28.2649 63.6314L28.3647 63.92L28.4567 64.2164L28.5488 64.5204L28.6064 64.8167L28.6639 65.1285L28.7023 65.4402L28.7368 65.7596V66.079L28.7522 66.4062L28.7407 66.741L28.7215 67.0835L28.6793 67.3721L28.6371 67.6685L28.5795 67.9648L28.5181 68.2688L28.4414 68.5729L28.357 68.8846L28.1651 69.5157L27.9311 70.1469L27.6664 70.8127L27.3517 71.4746L27.1906 71.8171L27.0179 72.1712L26.6266 72.8639L26.4271 73.2141L26.216 73.5759L25.9858 73.9338L25.7518 74.2917L25.5101 74.6573L25.2607 75.0306L24.9921 75.4001L24.7197 75.7772L24.1556 76.5431L23.5494 77.3166L22.9087 78.1133L9.72528 74.692L9.61401 74.6689H9.52193L9.42601 74.6766L9.33009 74.7151L9.23033 74.7535L9.14592 74.8113L9.06918 74.8729L9.01163 74.9575L8.95024 75.0345L8.91187 75.1307L8.88885 75.2308L8.88118 75.3385L8.85816 78.5251L4.21558 77.3243L4.04292 77.2474L3.89328 77.1666L3.75132 77.0742L3.62854 76.9895L3.5518 76.8086L3.49041 76.6201L3.43286 76.4238L3.40217 76.2314L3.36763 76.012L3.35229 75.7926L3.34078 75.5656L3.35229 75.3308L4.79878 58.9247L16.2287 54.8145L25.3412 60.3063L25.6559 60.5218L25.9705 60.7566L26.2659 60.9913L26.5537 61.2338L26.8223 61.4762L27.0793 61.7264L27.3249 61.9842L27.5589 62.2498L27.5551 62.2652ZM10.7267 83.9784L10.742 83.8745L10.7574 80.1953L10.7651 80.153V80.1453L10.7843 76.9818L17.6407 78.7637V83.1895H17.6445V83.2125L17.6407 83.2318L17.656 83.3088V83.3626L17.6791 83.4242L17.7021 83.4781L17.7481 83.5397L17.7788 83.5974L17.8364 83.659L17.8901 83.7052L17.9668 83.759L18.0244 83.7898H18.0397L18.2124 83.8937V83.9322L18.2085 83.9476H18.2239L18.2124 83.9745V83.9899L18.2239 84.0669L18.2316 84.1208L18.2507 84.1824L18.2738 84.2362L18.3198 84.2978L18.3543 84.3517L18.4081 84.4056L18.4656 84.4518L18.5423 84.5056L18.5884 84.5441H18.6037L18.9874 84.7365L19.3558 84.9636L19.7164 85.2061L19.8891 85.3331L20.0694 85.4755L20.3994 85.7487L20.7178 86.0527L21.0209 86.3722L21.3241 86.707L21.5082 86.9802L21.6886 87.2689L21.9034 87.6691L22.1106 88.077L22.2871 88.4888L22.4559 88.9083L22.5864 89.324L22.7053 89.7473L22.7897 90.1783L22.8703 90.6171L22.9087 91.0442L22.9355 91.483V91.9178L22.9202 92.3643L22.8703 92.803L22.8166 93.2571L22.7283 93.7074L22.6248 94.1692L22.5442 94.4925L22.4291 94.8119L22.3677 94.9659L22.3408 95.0428L22.3255 95.0813L22.3178 95.1275L22.1912 95.4392L22.0569 95.751L21.9073 96.0473L21.7576 96.3436L21.5888 96.6284L21.4277 96.9093L21.2396 97.1672L21.044 97.4327L20.8445 97.679L20.6296 97.933L20.4071 98.164L20.1768 98.3987L19.939 98.6181L19.6972 98.8374L19.6512 94.0961L19.6282 93.9768L19.609 93.869L19.5668 93.769L19.5131 93.6805L19.4325 93.5958L19.3519 93.5265L19.256 93.4726L19.1562 93.4419L19.0833 93.4342V93.3418L19.068 93.2263L19.045 93.1224L18.9989 93.0224L18.9414 92.93L18.8646 92.8453L18.7802 92.7761L18.6843 92.7222L18.5846 92.6991L14.0417 91.4252L13.8691 91.3945L13.7118 91.4175L9.1958 92.4297L9.07686 92.4528L8.9771 92.5067L8.88118 92.5759L8.80828 92.6606L8.74305 92.7453L8.70468 92.8453L8.67015 92.9454L8.65864 93.0608L8.64329 93.7651L8.62794 94.4925L8.6126 95.243L8.59725 96.0165L8.57807 96.8054L8.56272 97.6175L8.54737 98.4449L8.52819 99.2954L8.08311 98.9529L7.86825 98.772L7.66106 98.5911L7.25819 98.2024L7.06635 97.9908L6.88602 97.7906L6.5407 97.2288L6.41792 97.0171L6.30666 96.8131L6.09947 96.409L5.91146 95.9857L5.82705 95.774L5.76182 95.5701L5.61602 95.1506L5.49708 94.7273L5.44337 94.5079L5.405 94.2962L5.34361 93.8729L5.28606 93.4342L5.26303 92.9993V92.7722V92.5529L5.28606 92.1141L5.32442 91.66L5.38965 91.2251L5.47022 90.771L5.58917 90.3246L5.70811 89.8627L5.85774 89.4356L6.01889 89.0045L6.19922 88.6043L6.3949 88.204L6.60977 87.823L6.84381 87.4574L7.10088 87.1072L7.36946 86.757L7.66106 86.4376L7.96417 86.1182L8.29414 85.8295L8.62794 85.5409L8.99244 85.2753L9.37613 85.0175L9.77516 84.7827L10.0476 84.6211L10.3392 84.471H10.3507L10.4121 84.4402L10.4658 84.3786L10.5272 84.3248L10.6385 84.1978L10.6615 84.1362L10.6883 84.0823L10.7075 84.0207L10.7229 83.9668L10.7267 83.9784Z" fill="#1D1D1B"/>
<path fill-rule="evenodd" clip-rule="evenodd" d="M9.63308 35.7685L9.23021 35.9879L8.84653 36.2419L8.48587 36.492L8.14439 36.7691L7.81826 37.0501L7.50747 37.3503L7.21971 37.6581L6.9588 37.9853L6.70173 38.3162L6.46769 38.6664L6.24515 39.032L6.04947 39.4131L5.86147 39.7902L5.70032 40.1981L5.56219 40.6061L5.43558 41.041L5.32431 41.4643L5.24373 41.8953L5.17083 42.3071L5.1363 42.7382L5.11328 43.1499L5.12096 43.5733L5.14398 43.9812L5.19385 44.3969L5.25524 44.7971L5.29361 44.9972L5.34733 45.205L5.4586 45.6053L5.60056 46.0055L5.76554 46.3942L5.94588 46.7945L6.14923 47.1793L6.38328 47.5757L6.54059 47.8297L6.71708 48.0876L6.89741 48.33L7.09693 48.5763L7.2811 48.8034L7.48829 49.0227L7.91801 49.4538L8.36309 49.8386L8.59714 50.0195L8.84653 50.2004L9.08825 50.3659L9.34532 50.5198L9.61006 50.6699L9.89399 50.8238L10.3813 51.0509L10.3582 54.5723L15.937 52.6596L18.3389 54.0335V50.8739L18.5077 50.7931L18.7916 50.6276L18.8799 50.5622L18.9796 50.5083L19.1753 50.3928L19.5628 50.1504L19.6472 50.0772L19.7317 50.0118L19.912 49.8848L20.0002 49.8117L20.0885 49.7501L20.265 49.6193L20.5873 49.3345L20.7407 49.1844L20.8981 49.0381L21.04 48.8842L21.0745 48.838L21.1129 48.8034L21.1858 48.7341L21.3239 48.5686L21.4659 48.4108L21.5887 48.2377L21.6462 48.153L21.6808 48.1107L21.7153 48.0722L21.7383 48.026L21.7652 47.9798L21.8266 47.8951L21.9493 47.722L22.0529 47.5372L22.1604 47.3602L22.3676 46.9869L22.4481 46.7868L22.5402 46.5943L22.6208 46.3942L22.7167 46.198L22.7436 46.094L22.7781 45.994L22.8587 45.79L22.9239 45.5783L22.9546 45.4706L22.993 45.3705L23.0927 44.9318L23.181 44.5046L23.2424 44.0736L23.2884 43.6579L23.3038 43.2346V42.8228L23.2731 42.4072L23.227 41.9992L23.1541 41.5836L23.062 41.1757L22.9431 40.7754L22.8126 40.3829L22.6477 39.9826L22.4635 39.5901L22.2563 39.2052L22.0414 38.8242L21.8611 38.5433L21.6808 38.2816L21.4813 38.0199L21.2894 37.7774L21.0784 37.535L20.875 37.3079L20.6563 37.0847L20.4415 36.8769L20.2036 36.6691L19.9695 36.4766L19.7201 36.2919L19.4707 36.1187L19.206 35.9494L18.9413 35.7993L18.6612 35.6492L18.3888 35.5184L18.1624 35.4183L18.2545 43.3231L14.3332 44.1813L10.4043 43.2154L10.4081 35.376L10.2086 35.476L9.91701 35.6107L9.63308 35.7685Z" fill="#E3E3E3"/>
<path fill-rule="evenodd" clip-rule="evenodd" d="M10.5268 84.2981L9.95891 84.6176L9.55604 84.86L9.17236 85.1256L8.80402 85.3988L8.47021 85.6951L8.14024 85.9992L7.8333 86.3186L7.54937 86.6573L7.28079 87.0075L7.02372 87.3577L6.78584 87.7425L6.56714 88.1235L6.37146 88.5392L6.18345 88.951L6.02231 89.382L5.87267 89.8284L5.75373 90.2902L5.63862 90.7405L5.55421 91.1985L5.48131 91.6526L5.44294 92.1067L5.41992 92.5455V92.9957L5.44294 93.4345L5.45829 93.6538L5.49282 93.877L5.51584 94.0926L5.55421 94.3081L5.63862 94.7468L5.74989 95.1663L5.81128 95.378L5.88802 95.5973L5.96092 95.8013L6.04533 96.013L6.22182 96.4324L6.31774 96.6364L6.42901 96.8481L6.65539 97.2676L6.8127 97.5408L6.98535 97.8141L7.16569 98.0796L7.35369 98.3413L7.53786 98.5838L7.74505 98.8224L8.17478 99.2765L8.3858 99.4804L8.60834 99.6844L8.84239 99.8768L9.08794 100.065L9.32967 100.239L9.59057 100.408L10.1316 100.724L10.1431 99.7537L10.1738 98.8147L10.1968 97.9026L10.2313 97.0213L10.2428 96.1515L10.2543 95.732L10.2697 95.3241L10.2812 94.512L10.3157 93.7385L14.4979 92.7379L18.6954 93.9117L18.7069 100.658L18.9908 100.481L19.175 100.354L19.3592 100.239L19.3975 100.2L19.4474 100.165L19.5433 100.104L19.7275 99.9808L20.0613 99.7152L20.2301 99.5728L20.4028 99.442L20.7059 99.1418L20.8517 98.9878L21.009 98.8378L21.2891 98.526L21.3505 98.4414L21.4157 98.3605L21.5577 98.2066L21.8032 97.8641L21.857 97.7717L21.9183 97.6832L22.0335 97.51L22.137 97.3253L22.2483 97.1444L22.3481 96.9558L22.4593 96.7788L22.6397 96.3863L22.7279 96.1823L22.7394 96.1284L22.7663 96.0822L22.8085 95.9899L22.843 95.8783L22.8545 95.8244L22.8776 95.7782L22.9543 95.5742L23.1078 95.1509L23.196 94.8238L23.2958 94.3543L23.3802 93.8963L23.4416 93.4422L23.4915 92.988L23.5068 92.5378V92.0913L23.4838 91.6526L23.4416 91.2177L23.3725 90.779L23.2843 90.3403L23.1692 89.9131L23.0464 89.4898L22.8776 89.0703L22.7087 88.6469L22.5054 88.2313L22.2905 87.8272L22.114 87.5232L21.9337 87.2422L21.738 86.9613L21.55 86.7034L21.3505 86.4417L21.1433 86.2031L20.9246 85.9684L20.7059 85.749L20.4719 85.5296L20.234 85.3257L19.9884 85.1333L19.7429 84.9524L19.4781 84.7715L19.221 84.6099L18.9448 84.4521L18.6724 84.3097L18.7107 79.0642L10.6227 76.9629L10.5268 84.2981Z" fill="#E3E3E3"/>
<path fill-rule="evenodd" clip-rule="evenodd" d="M36.7141 39.293L36.8023 39.4892L36.8983 39.7086L36.9865 39.9357L37.0786 40.1781L37.1553 40.4321L37.2513 40.7246L37.3203 41.0363L37.3549 41.1826L37.3932 41.3404L37.4393 41.6367L37.4776 41.933L37.5007 42.214V42.3487L37.5122 42.4872L37.5007 42.7528L37.4891 43.0106L37.4661 43.026V43.0606L37.4431 43.1684L37.4316 43.2762L37.3817 43.4724L37.3549 43.561L37.3395 43.5994L37.328 43.6456L37.2896 43.7226L37.2589 43.7996L37.2091 43.8534L37.1707 43.9189L37.0786 44.0189L37.021 44.0497L36.975 44.0882L36.9136 44.1113L36.8599 44.1459H36.8215L36.7908 44.1498L36.7256 44.1613L36.6028 44.1498L36.5645 44.1382L36.5299 44.1267L36.4685 44.1113L36.3458 44.0497L36.2 43.9573L36.1347 43.8958L36.0657 43.8419L35.9275 43.6918L35.8892 43.6456L35.8585 43.6071L35.8009 43.5263L35.7549 43.4724L35.6091 43.2531L35.4748 43.026L35.3443 42.7836L35.2254 42.5373L35.1103 42.264L35.0067 41.9792L34.9031 41.6752L34.8187 41.3712L34.7343 41.0671L34.6767 40.7939L34.6384 40.536L34.6115 40.3013L34.5847 40.1281L34.5655 39.9819L34.5616 39.724L34.412 39.8318L34.2892 39.9626L34.1626 40.105L34.0552 40.2705L33.9439 40.4244L33.848 40.6053L33.7521 40.7939L33.6753 41.0056L33.5525 41.3558L33.4566 41.7214L33.3952 42.0908L33.3799 42.4718V42.8567L33.4183 43.2608L33.4796 43.6687L33.5909 44.0882L33.6293 44.2383L33.7137 44.5269L33.825 44.8079L33.9439 45.0811L34.082 45.3467L34.2278 45.5891L34.389 45.8239L34.5501 46.0509L34.7535 46.2664L34.8954 46.4242L35.0681 46.582L35.0911 46.4242L35.1487 46.2664L35.187 46.151L35.2484 46.0432L35.3175 45.9162L35.4096 45.8008L35.4978 45.6661L35.6091 45.5429L35.7242 45.4082L35.8662 45.2812L36.0964 45.135L36.3304 45.0118L36.5683 44.9079L36.8215 44.8387L37.0709 44.7771L37.3395 44.7463L37.6004 44.7386L37.8843 44.754L38.0877 44.7925L38.291 44.854L38.4752 44.931L38.6671 45.0349L38.8397 45.1504L39.0085 45.2928L39.1735 45.4583L39.3308 45.643L39.3462 45.6045L39.3692 45.5083L39.3999 45.4236L39.4574 45.2543L39.4728 45.1619L39.4805 45.1119L39.4958 45.0734L39.5419 44.9041L39.5649 44.7155L39.5956 44.5346L39.6109 44.346L39.6301 44.169V43.7842L39.6109 43.5879L39.5956 43.4032L39.5342 43.0106L39.4958 42.8105L39.4805 42.7528L39.4728 42.7066L39.4574 42.6142L39.4229 42.5373L39.2925 42.1216L39.2234 41.9176L39.1505 41.7291L38.9778 41.3635L38.7937 41.0286L38.5711 40.7092L38.3486 40.4167L38.0877 40.1473L37.8114 39.9049L37.5352 39.6932L37.2589 39.52L36.975 39.3892L36.7141 39.293Z" fill="#1D1D1B"/>
<path d="M18.0318 27.4051C18.4922 28.3057 18.4462 29.2486 17.9282 29.5141L12.7945 32.1542C12.2803 32.4197 11.49 31.904 11.0295 31.0073C10.5691 30.1068 10.6152 29.1639 11.1293 28.8983L16.2668 26.2583C16.781 25.9927 17.5714 26.5084 18.0318 27.4051Z" fill="#1D1D1B"/>
<path d="M69.4876 14.4631C69.6948 15.6061 69.3226 16.6298 68.6626 16.753L62.7194 17.8267C62.0556 17.946 61.3535 17.1147 61.1501 15.9717C60.9429 14.8287 61.3151 13.805 61.9789 13.6857L67.9221 12.612C68.5859 12.4927 69.288 13.324 69.4914 14.467L69.4876 14.4631Z" fill="#1D1D1B"/>
<path d="M34.4111 19.7579L41.2983 18.1338L42.104 21.5666L35.2169 23.1946L34.4111 19.7579Z" fill="#1D1D1B"/>
<path d="M39.292 20.9554C40.4545 25.2041 36.2608 30.0648 29.9185 31.812C23.5801 33.5592 17.4948 31.5349 16.3323 27.2862C15.1659 23.0374 19.3634 18.1768 25.7019 16.4296C32.0442 14.6824 38.1255 16.7067 39.2881 20.9554H39.292Z" fill="#1D1D1B"/>
<path d="M32.6426 22.8872C33.2949 25.2733 30.7434 28.0558 26.9372 29.1025C23.1349 30.1532 19.5206 29.0679 18.8684 26.6818C18.2123 24.2958 20.7676 21.5133 24.5699 20.4665C28.3722 19.4159 31.9865 20.5012 32.6388 22.8834L32.6426 22.8872Z" fill="white"/>
<path d="M63.1034 14.4085C64.2698 18.6573 60.0723 23.5179 53.7339 25.2651C47.3916 27.0124 41.3102 24.9881 40.1438 20.7393C38.9812 16.4906 43.1749 11.6299 49.5172 9.8827C55.8556 8.13548 61.9409 10.1598 63.1034 14.4085Z" fill="#1D1D1B"/>
<path d="M60.3868 15.0175C61.039 17.4035 58.4875 20.186 54.6814 21.2328C50.8791 22.2834 47.2648 21.202 46.6125 18.8159C45.9602 16.4299 48.5117 13.6474 52.314 12.6006C56.1202 11.5538 59.7307 12.6353 60.3868 15.0175Z" fill="white"/>
<path d="M19.5526 70.6191C25.9819 70.6191 30.8188 74.571 30.8188 78.7249C30.8188 81.0015 29.1577 82.6814 26.6958 82.6814C25.0713 82.6814 24.5405 82.3234 23.369 80.2855C22.2342 78.3302 20.9849 77.8115 19.095 77.8115C16.3723 77.8115 14.1804 80.6068 14.1804 85.6786C14.1804 90.3511 15.9193 93.5457 19.5526 93.5457C21.1405 93.5457 21.9367 93.0683 23.6756 90.5118C24.5084 89.2725 25.5655 88.5978 26.8514 88.5978C29.1211 88.5978 30.8965 90.2318 30.8965 92.6323C30.8965 97.6628 24.3941 100.738 19.5526 100.738C12.2539 100.738 5.48145 96.1068 5.48145 85.6832C5.48145 75.2595 12.3271 70.6283 19.5526 70.6283V70.6191Z" fill="#1D1D1B"/>
<path d="M6.46977 100.637C2.79067 97.1994 0.621638 91.9164 0.65367 85.6788C0.621638 79.5604 2.841 74.3234 6.46977 70.8809C10.0848 67.4201 14.8438 65.7816 19.548 65.7861C23.7533 65.7907 27.5468 67.0575 30.48 69.2423C33.3721 71.4042 35.6143 74.6997 35.6418 78.7297C35.6601 81.043 34.7357 83.3976 33.038 85.0316C32.8229 85.2427 32.6033 85.4355 32.3699 85.6191C32.617 85.8119 32.855 86.0184 33.0838 86.2387C34.7632 87.8498 35.7379 90.2274 35.7196 92.6233C35.7287 94.9412 34.9325 97.103 33.7748 98.76C32.617 100.435 31.1481 101.688 29.5969 102.666C26.4669 104.589 22.98 105.539 19.5526 105.567H19.5297C14.8988 105.567 10.126 104.075 6.47434 100.633L6.46977 100.637ZM19.0034 85.6788C18.9851 86.8813 19.1773 87.758 19.3512 88.2721C19.4519 88.1344 19.5571 87.9783 19.6715 87.8085C20.1657 87.0741 20.7652 86.3627 21.5065 85.7384C20.4586 84.825 19.9186 83.9162 19.3878 83.0304C19.2002 83.549 18.9989 84.4303 19.008 85.6788H19.0034Z" fill="#1D1D1B"/>
<path d="M50.487 74.6128C51.2054 71.7763 52.3402 70.7803 55.0996 70.7803H57.5569C60.545 70.7803 62.0963 72.8182 62.0963 75.7741V96.4608C62.0963 99.2147 60.545 100.573 58.2021 100.573C55.8592 100.573 54.3079 99.2147 54.3079 96.4608V82.4845H54.2347L50.2993 98.0213C49.8097 99.9766 48.9357 100.578 46.8582 100.578C44.7807 100.578 43.9067 99.9766 43.417 98.0213L39.4863 82.4845H39.4085V96.4608C39.4085 99.2147 37.8572 100.573 35.5143 100.573C33.1714 100.573 31.6201 99.2147 31.6201 96.4608V75.7741C31.6201 72.8182 33.1714 70.7803 36.1595 70.7803H38.6168C41.3761 70.7803 42.511 71.7763 43.2294 74.6128L46.8216 88.8691H46.8994L50.4915 74.6128H50.487Z" fill="#1D1D1B"/>
<path d="M52.5503 103.507C52.381 103.658 52.2025 103.805 52.0149 103.938C50.1616 105.264 48.2901 105.402 46.8578 105.411C45.7458 105.402 44.5057 105.324 43.078 104.727C42.4008 104.457 41.7418 104.021 41.1652 103.502C39.4675 104.897 37.3534 105.43 35.5093 105.411C33.4501 105.43 31.0477 104.76 29.2676 102.97C27.4784 101.189 26.7692 98.7055 26.7875 96.4611V75.7744C26.7875 73.4794 27.3869 71.0101 29.1166 68.9951C30.8326 66.9618 33.592 65.8969 36.1499 65.9428H38.6073C39.5819 65.9428 40.5887 66.0254 41.6594 66.3146C42.7165 66.5946 43.8468 67.1362 44.7803 67.9303C45.7184 68.7335 46.3727 69.6377 46.8532 70.5649C47.0866 70.1151 47.3657 69.6652 47.6998 69.22C48.7248 67.8109 50.4499 66.7093 52.047 66.3146C53.1132 66.0254 54.1199 65.9474 55.0992 65.9428H57.5565C60.1144 65.8969 62.8738 66.9618 64.5852 68.9951C66.3149 71.0055 66.919 73.4749 66.919 75.7744V96.4611C66.9418 98.7055 66.228 101.184 64.4388 102.97C62.6633 104.764 60.2563 105.434 58.1971 105.411C58.1651 105.411 58.1376 105.411 58.1056 105.411C56.2889 105.411 54.2114 104.874 52.5457 103.502L52.5503 103.507ZM57.2728 77.6471V75.7744C57.2728 75.7193 57.2728 75.6688 57.2728 75.6183H55.2136C55.1998 75.6734 55.1815 75.7377 55.1632 75.8065L54.701 77.6425H57.2728V77.6471ZM39.0145 77.6471L38.5523 75.8111C38.534 75.7423 38.5203 75.678 38.5066 75.6229H36.4474C36.4474 75.6688 36.4474 75.7239 36.4474 75.779V77.6517H39.0237L39.0145 77.6471ZM50.4865 74.6177L48.043 73.9935L50.4865 74.6177Z" fill="#1D1D1B"/>
<path d="M76.3588 89.7508L70.5702 87.9929C66.2184 86.6756 63.8389 83.9584 63.8389 79.9284C63.8389 75.1366 66.8682 70.6201 74.4277 70.6201C79.4567 70.6201 85.9638 71.9007 85.9638 76.7293C85.9638 78.9646 84.3393 80.3645 82.184 80.3645C79.2737 80.3645 79.2325 76.8486 74.9219 76.8486C73.4485 76.8486 72.0848 77.4499 72.0848 78.7672C72.0848 80.0845 73.1419 80.6031 74.9952 81.1218L79.4979 82.3978C84.0739 83.7151 87.2131 85.9504 87.2131 90.9442C87.2131 97.774 81.6532 100.73 75.9058 100.73C66.7538 100.73 63.9533 96.4153 63.9533 93.8175C63.9533 91.5822 65.5045 90.0629 67.6232 90.0629C70.7257 90.0629 71.101 94.2535 75.375 94.2535C77.1504 94.2535 78.7429 93.6155 78.7429 91.8576C78.7429 90.7009 77.9467 90.219 76.3588 89.7416V89.7508Z" fill="#1D1D1B"/>
<path d="M63.5782 102.106C60.677 99.894 59.1349 96.8326 59.1258 93.8262C59.1075 91.5955 59.954 89.3189 61.5602 87.7079C59.8579 85.5277 58.9839 82.7141 59.0114 79.928C58.9976 76.5406 60.1142 72.8687 62.8598 70.0781C65.6008 67.269 69.7192 65.759 74.4233 65.7865C76.6152 65.7911 79.0451 65.9793 81.4704 66.5943C83.8728 67.2323 86.4262 68.2192 88.5128 70.5784C89.8902 72.1297 90.81 74.4293 90.7825 76.738C90.8054 78.7025 90.1053 80.7266 88.8286 82.2413C90.8924 84.4398 92.0867 87.6574 92.0318 90.9575C92.105 95.6989 89.8536 99.917 86.6092 102.276C83.3923 104.681 79.5805 105.567 75.9014 105.581C70.5886 105.581 66.4977 104.328 63.5782 102.116V102.106ZM76.0341 90.829L76.359 89.7504L76.0341 90.8244V90.829Z" fill="#1D1D1B"/>
<path d="M19.5481 70.9277C25.9773 70.9277 30.8188 74.8842 30.8188 79.0335C30.8188 81.3101 29.1531 82.99 26.6958 82.99C25.0713 82.99 24.5405 82.6274 23.369 80.5941C22.2342 78.6342 20.9849 78.1155 19.095 78.1155C16.3723 78.1155 14.1804 80.9108 14.1804 85.9826C14.1804 90.6551 15.9193 93.8497 19.5526 93.8497C21.1405 93.8497 21.9367 93.3723 23.6756 90.8158C24.5084 89.5765 25.5655 88.8972 26.8514 88.8972C29.1211 88.8972 30.8965 90.5358 30.8965 92.9317C30.8965 97.9622 24.3895 101.037 19.5526 101.037C12.2539 101.037 5.48145 96.4063 5.48145 85.9826C5.48145 75.5589 12.3271 70.9277 19.5526 70.9277H19.5481Z" fill="white"/>
<path d="M50.4866 74.9205C51.205 72.0839 52.3399 71.0879 55.0992 71.0879H57.5565C60.5446 71.0879 62.0959 73.1258 62.0959 76.0817V96.7684C62.0959 99.5223 60.5446 100.881 58.2017 100.881C55.8588 100.881 54.3076 99.5223 54.3076 96.7684V82.7875H54.2343L50.3036 98.3243C49.8093 100.28 48.9399 100.881 46.8624 100.881C44.7849 100.881 43.9109 100.28 43.4213 98.3243L39.4905 82.7875H39.4173V96.7684C39.4173 99.5223 37.866 100.881 35.5231 100.881C33.1802 100.881 31.6289 99.5223 31.6289 96.7684V76.0817C31.6289 73.1258 33.1802 71.0879 36.1683 71.0879H38.6256C41.3849 71.0879 42.5198 72.0885 43.2382 74.9205L46.8304 89.1767H46.9082L50.5003 74.9205H50.4866Z" fill="white"/>
<path d="M76.3549 90.0581L70.5663 88.3002C66.2145 86.9829 63.835 84.2657 63.835 80.2312C63.835 75.4393 66.8597 70.9229 74.4238 70.9229C79.4529 70.9229 85.9599 72.1988 85.9599 77.032C85.9599 79.2673 84.3309 80.6672 82.1801 80.6672C79.2652 80.6672 79.2286 77.1513 74.918 77.1513C73.4446 77.1513 72.0809 77.748 72.0809 79.0699C72.0809 80.3918 73.138 80.9059 74.9913 81.4245L79.494 82.7005C84.07 84.0178 87.2092 86.2577 87.2092 91.2469C87.2092 98.0767 81.6493 101.033 75.9019 101.033C66.7499 101.033 63.9494 96.7181 63.9494 94.1248C63.9494 91.8895 65.5006 90.3703 67.6147 90.3703C70.7173 90.3703 71.0925 94.5654 75.3665 94.5654C77.142 94.5654 78.7298 93.9228 78.7298 92.1695C78.7298 91.0128 77.9382 90.5309 76.3457 90.0535L76.3549 90.0581Z" fill="white"/>
</g>
<defs>
<clipPath id="clip0_9_10649">
<rect width="92" height="106" fill="white" transform="translate(0.0332031)"/>
</clipPath>
</defs>
</svg>
