<svg viewBox="0 0 111 48" fill="none" xmlns="http://www.w3.org/2000/svg">
<path d="M22.7831 5.83008C30.5224 5.83008 36.3448 10.5968 36.3448 15.6072C36.3448 18.3532 34.3452 20.3794 31.3817 20.3794C29.4262 20.3794 28.7873 19.9476 27.3771 17.4895C26.011 15.131 24.5072 14.5054 22.2322 14.5054C18.9547 14.5054 16.3162 17.877 16.3162 23.9946C16.3162 29.6306 18.4094 33.4838 22.7831 33.4838C24.6945 33.4838 25.653 32.908 27.7462 29.8243C28.7487 28.3295 30.0211 27.5157 31.569 27.5157C34.3012 27.5157 36.4384 29.4866 36.4384 32.3821C36.4384 38.4498 28.611 42.1592 22.7831 42.1592C13.9972 42.1592 5.84473 36.573 5.84473 24.0002C5.84473 11.4273 14.0853 5.84115 22.7831 5.84115V5.83008Z" fill="#1D1D1B"/>
<path d="M7.03482 42.037C2.60606 37.8903 -0.00493455 31.5181 0.0336243 23.9943C-0.00493455 16.6144 2.66665 10.2975 7.03482 6.14528C11.3865 1.97092 17.1152 -0.00552468 22.7778 1.15978e-05C27.8401 0.00554788 32.4065 1.53356 35.9374 4.16883C39.4187 6.77642 42.1179 10.7515 42.1509 15.6123C42.1729 18.4026 41.0602 21.2427 39.0166 23.2136C38.7577 23.4683 38.4933 23.7008 38.2124 23.9223C38.5099 24.1548 38.7963 24.4039 39.0717 24.6697C41.0933 26.6129 42.2666 29.4807 42.2446 32.3706C42.2556 35.1665 41.2971 37.7741 39.9035 39.7727C38.5099 41.7934 36.7417 43.3048 34.8743 44.484C31.1066 46.8037 26.9092 47.9497 22.7834 47.983H22.7558C17.1813 47.983 11.436 46.1837 7.04032 42.0315L7.03482 42.037ZM22.1223 23.9943C22.1003 25.4448 22.3317 26.5022 22.541 27.1222C22.6622 26.9562 22.7889 26.7679 22.9266 26.5631C23.5215 25.6773 24.2431 24.8192 25.1354 24.0662C23.874 22.9645 23.224 21.8683 22.5851 20.7998C22.3592 21.4254 22.1168 22.4884 22.1279 23.9943H22.1223Z" fill="#1D1D1B"/>
<path d="M60.0207 10.6462C60.8856 7.22481 62.2516 6.02344 65.5732 6.02344H68.5312C72.1282 6.02344 73.9956 8.48155 73.9956 12.0469V36.9989C73.9956 40.3207 72.1282 41.9594 69.3079 41.9594C66.4876 41.9594 64.6203 40.3207 64.6203 36.9989V20.141H64.5321L59.7949 38.8813C59.2055 41.2397 58.1534 41.965 55.6526 41.965C53.1518 41.965 52.0996 41.2397 51.5102 38.8813L46.7785 20.141H46.6849V36.9989C46.6849 40.3207 44.8175 41.9594 41.9972 41.9594C39.1769 41.9594 37.3096 40.3207 37.3096 36.9989V12.0469C37.3096 8.48155 39.1769 6.02344 42.7739 6.02344H45.7319C49.0535 6.02344 50.4196 7.22481 51.2844 10.6462L55.6085 27.8419H55.7021L60.0262 10.6462H60.0207Z" fill="#1D1D1B"/>
<path d="M62.5049 45.4972C62.3011 45.6799 62.0863 45.857 61.8604 46.0176C59.6295 47.6176 57.3766 47.7837 55.6525 47.7947C54.3139 47.7837 52.8211 47.6895 51.1025 46.9698C50.2873 46.6432 49.4941 46.1172 48.8 45.4916C46.7564 47.1747 44.2115 47.8169 41.9916 47.7947C39.5128 47.8169 36.6209 47.0086 34.4782 44.8494C32.3244 42.7014 31.4706 39.7062 31.4926 36.999V12.047C31.4926 9.27881 32.2142 6.30029 34.2964 3.86986C36.362 1.41729 39.6836 0.132878 42.7628 0.188241H45.7208C46.8941 0.188241 48.106 0.287892 49.3949 0.636678C50.6674 0.974391 52.0279 1.62768 53.1517 2.58545C54.2809 3.5543 55.0686 4.64495 55.647 5.76328C55.9279 5.22073 56.2639 4.67816 56.666 4.14115C57.8999 2.44151 59.9766 1.1128 61.899 0.636678C63.1825 0.287892 64.3943 0.193777 65.5731 0.188241H68.5311C71.6103 0.132878 74.9319 1.41729 76.992 3.86986C79.0742 6.29476 79.8013 9.27328 79.8013 12.047V36.999C79.8289 39.7062 78.9696 42.6958 76.8158 44.8494C74.6785 47.0141 71.7811 47.8224 69.3023 47.7947C69.2638 47.7947 69.2307 47.7947 69.1921 47.7947C67.0053 47.7947 64.5045 47.147 62.4994 45.4916L62.5049 45.4972ZM68.1896 14.3058V12.047C68.1896 11.9805 68.1896 11.9196 68.1896 11.8587H65.7108C65.6943 11.9252 65.6723 12.0027 65.6502 12.0857L65.0939 14.3002H68.1896V14.3058ZM46.2111 14.3058L45.6547 12.0912C45.6327 12.0082 45.6162 11.9307 45.5996 11.8643H43.1209C43.1209 11.9196 43.1209 11.9861 43.1209 12.0525V14.3113H46.2221L46.2111 14.3058ZM60.0206 10.6518L57.0792 9.89888L60.0206 10.6518Z" fill="#1D1D1B"/>
<path d="M91.1647 28.9053L84.1966 26.7849C78.9581 25.196 76.0938 21.9185 76.0938 17.0577C76.0938 11.2778 79.7403 5.83008 88.8402 5.83008C94.8939 5.83008 102.727 7.3747 102.727 13.1989C102.727 15.895 100.771 17.5836 98.177 17.5836C94.6736 17.5836 94.624 13.3428 89.4351 13.3428C87.6614 13.3428 86.0199 14.0681 86.0199 15.657C86.0199 17.2459 87.2923 17.8715 89.5233 18.4971L94.9435 20.0362C100.452 21.6251 104.231 24.3213 104.231 30.3447C104.231 38.5827 97.538 42.1481 90.6194 42.1481C79.6026 42.1481 76.2315 36.944 76.2315 33.8104C76.2315 31.1143 78.0988 29.2818 80.6492 29.2818C84.3839 29.2818 84.8356 34.3364 89.9804 34.3364C92.1177 34.3364 94.0346 33.5669 94.0346 31.4465C94.0346 30.0513 93.0762 29.47 91.1647 28.8942V28.9053Z" fill="#1D1D1B"/>
<path d="M75.7794 43.809C72.2871 41.1406 70.4307 37.4479 70.4197 33.8216C70.3977 31.131 71.4167 28.385 73.3502 26.4417C71.3011 23.812 70.249 20.4183 70.282 17.0577C70.2655 12.972 71.6095 8.54292 74.9146 5.17686C78.2141 1.78866 83.1717 -0.0327713 88.8343 0.000446416C91.4729 0.0059827 94.3978 0.232967 97.3173 0.974829C100.209 1.74437 103.283 2.93468 105.795 5.78033C107.453 7.65159 108.56 10.4253 108.527 13.21C108.554 15.5795 107.712 18.021 106.175 19.848C108.659 22.4999 110.097 26.3808 110.031 30.3614C110.119 36.0804 107.409 41.1682 103.503 44.0139C99.6308 46.9149 95.0423 47.9834 90.6135 48C84.2183 48 79.2938 46.4886 75.7794 43.8201V43.809ZM90.7733 30.2064L91.1644 28.9054L90.7733 30.2009V30.2064Z" fill="#1D1D1B"/>
<path d="M22.7776 6.20117C30.5169 6.20117 36.3448 10.9734 36.3448 15.9782C36.3448 18.7242 34.3397 20.7505 31.3817 20.7505C29.4262 20.7505 28.7873 20.3132 27.3771 17.8606C26.011 15.4966 24.5072 14.871 22.2322 14.871C18.9547 14.871 16.3162 18.2426 16.3162 24.3602C16.3162 29.9961 18.4094 33.8494 22.7831 33.8494C24.6945 33.8494 25.653 33.2736 27.7462 30.1899C28.7487 28.6951 30.0211 27.8757 31.569 27.8757C34.3012 27.8757 36.4384 29.8522 36.4384 32.7421C36.4384 38.8099 28.6055 42.5192 22.7831 42.5192C13.9972 42.5192 5.84473 36.9331 5.84473 24.3602C5.84473 11.7873 14.0853 6.20117 22.7831 6.20117H22.7776Z" fill="white"/>
<path d="M60.0205 11.0173C60.8853 7.5959 62.2514 6.39453 65.5729 6.39453H68.5309C72.1279 6.39453 73.9953 8.85263 73.9953 12.418V37.37C73.9953 40.6918 72.1279 42.3305 69.3076 42.3305C66.4873 42.3305 64.62 40.6918 64.62 37.37V20.5065H64.5318L59.8001 39.2468C59.2052 41.6053 58.1586 42.3305 55.6578 42.3305C53.157 42.3305 52.1049 41.6053 51.5155 39.2468L46.7838 20.5065H46.6956V37.37C46.6956 40.6918 44.8283 42.3305 42.008 42.3305C39.1877 42.3305 37.3203 40.6918 37.3203 37.37V12.418C37.3203 8.85263 39.1877 6.39453 42.7847 6.39453H45.7427C49.0642 6.39453 50.4303 7.60144 51.2951 11.0173L55.6192 28.213H55.7129L60.037 11.0173H60.0205Z" fill="white"/>
<path d="M91.1589 29.2761L84.1908 27.1557C78.9523 25.5668 76.0879 22.2893 76.0879 17.4229C76.0879 11.643 79.729 6.19531 88.8344 6.19531C94.8881 6.19531 102.721 7.7344 102.721 13.5641C102.721 16.2603 100.76 17.9488 98.1711 17.9488C94.6622 17.9488 94.6182 13.708 89.4293 13.708C87.6556 13.708 86.014 14.4278 86.014 16.0222C86.014 17.6167 87.2865 18.2367 89.5174 18.8623L94.9377 20.4014C100.446 21.9903 104.225 24.692 104.225 30.71C104.225 38.948 97.5321 42.5133 90.6136 42.5133C79.5967 42.5133 76.2256 37.3092 76.2256 34.1812C76.2256 31.485 78.093 29.6525 80.6378 29.6525C84.3725 29.6525 84.8242 34.7127 89.9691 34.7127C92.1064 34.7127 94.0178 33.9376 94.0178 31.8228C94.0178 30.4276 93.0648 29.8463 91.1479 29.2705L91.1589 29.2761Z" fill="white"/>
</svg>
