<svg viewBox="0 0 20 20" fill="none" xmlns="http://www.w3.org/2000/svg">
<path d="M10.6909 18C10.4639 18 10.2503 17.9565 10.0501 17.8696C9.84981 17.7832 9.67626 17.6667 9.52941 17.52L2.4806 10.48C2.33375 10.3333 2.21707 10.16 2.13056 9.96C2.04352 9.76 2 9.54667 2 9.32V3.6C2 3.16 2.157 2.7832 2.47099 2.4696C2.78445 2.15653 3.16145 2 3.602 2H9.32916C9.55611 2 9.76971 2.0432 9.96996 2.1296C10.1702 2.21653 10.3438 2.33333 10.4906 2.48L17.5394 9.54C17.8465 9.84667 18 10.2232 18 10.6696C18 11.1165 17.8465 11.4933 17.5394 11.8L11.8123 17.52C11.6654 17.6667 11.4953 17.7832 11.302 17.8696C11.1082 17.9565 10.9045 18 10.6909 18ZM10.6708 16.4L16.398 10.68L9.32916 3.6H3.602V9.32L10.6708 16.4ZM5.60451 6.8C5.93826 6.8 6.22181 6.6832 6.45517 6.4496C6.68906 6.21653 6.80601 5.93333 6.80601 5.6C6.80601 5.26667 6.68906 4.98347 6.45517 4.7504C6.22181 4.5168 5.93826 4.4 5.60451 4.4C5.27076 4.4 4.9872 4.5168 4.75384 4.7504C4.51995 4.98347 4.403 5.26667 4.403 5.6C4.403 5.93333 4.51995 6.21653 4.75384 6.4496C4.9872 6.6832 5.27076 6.8 5.60451 6.8Z" fill="#282829"/>
</svg>

