<svg viewBox="0 0 33 32" fill="none" xmlns="http://www.w3.org/2000/svg">
<g clip-path="url(#clip0_353_9388)">
<path d="M16.7852 32C25.6217 32 32.7852 24.8366 32.7852 16C32.7852 7.16344 25.6217 0 16.7852 0C7.9486 0 0.785156 7.16344 0.785156 16C0.785156 24.8366 7.9486 32 16.7852 32Z" fill="#E664A5"/>
<path d="M8.3125 9.63606V22.327C8.3125 22.4702 8.34072 22.6121 8.39554 22.7444C8.45036 22.8768 8.53072 22.9971 8.63202 23.0984C8.73332 23.1997 8.85358 23.28 8.98594 23.3348C9.11829 23.3897 9.26015 23.4179 9.40341 23.4179H17.0034C22.7489 23.4179 25.2216 20.2179 25.2216 15.9633C25.2216 11.7088 22.7489 8.50879 17.0034 8.50879H9.43977C9.14508 8.5221 8.86603 8.64514 8.65744 8.85373C8.44885 9.06232 8.32581 9.34137 8.3125 9.63606Z" fill="white"/>
<path d="M13.4027 11.6727V21.0545H17.4754C21.1845 21.0545 22.7845 18.9454 22.7845 16C22.7845 13.1636 21.1845 10.9818 17.4754 10.9818H14.0936C14.0021 10.9788 13.9109 10.9946 13.8257 11.0282C13.7405 11.0619 13.6631 11.1126 13.5983 11.1774C13.5335 11.2422 13.4828 11.3196 13.4491 11.4048C13.4155 11.49 13.3997 11.5812 13.4027 11.6727Z" fill="#CC0066"/>
<path d="M17.0036 22.4362H10.4217C10.142 22.4362 9.87382 22.3251 9.67606 22.1273C9.47829 21.9296 9.36719 21.6613 9.36719 21.3817V10.618C9.36719 10.3383 9.47829 10.0701 9.67606 9.87235C9.87382 9.67458 10.142 9.56348 10.4217 9.56348H17.0036C23.2581 9.56348 24.2036 13.5998 24.2036 15.9998C24.2036 20.1453 21.6581 22.4362 17.0036 22.4362ZM10.4217 9.92711C10.2385 9.92711 10.0628 9.99991 9.93319 10.1295C9.80362 10.259 9.73082 10.4348 9.73082 10.618V21.3817C9.73082 21.5649 9.80362 21.7406 9.93319 21.8702C10.0628 21.9998 10.2385 22.0726 10.4217 22.0726H17.0036C21.4036 22.0726 23.8399 19.8908 23.8399 15.9635C23.8399 10.6908 19.549 9.89075 17.0036 9.89075L10.4217 9.92711Z" fill="black"/>
<path d="M11.5494 16.8723C12.1118 16.8723 12.5676 16.4164 12.5676 15.8541C12.5676 15.2918 12.1118 14.8359 11.5494 14.8359C10.9871 14.8359 10.5312 15.2918 10.5312 15.8541C10.5312 16.4164 10.9871 16.8723 11.5494 16.8723Z" fill="black"/>
<path d="M12.3488 21.0541C12.1431 21.0556 11.9391 21.0161 11.7487 20.938C11.5584 20.86 11.3854 20.7448 11.2399 20.5994C11.0945 20.4539 10.9793 20.2809 10.9013 20.0906C10.8232 19.9002 10.7837 19.6962 10.7852 19.4905V18.2541C10.7871 18.0425 10.872 17.8401 11.0216 17.6905C11.1712 17.5409 11.3736 17.456 11.5852 17.4541C11.7968 17.456 11.9992 17.5409 12.1488 17.6905C12.2984 17.8401 12.3833 18.0425 12.3852 18.2541L12.3488 21.0541Z" fill="black"/>
<path d="M17.8443 14.6941V15.1086H16.6625V15.5922H17.7534V15.9559H16.6625V16.5013H17.8771V16.9195H16.168V14.6904H17.8443V14.6941Z" fill="white"/>
<path d="M19.5394 14.6943L20.3794 16.9416H19.8667L19.6958 16.4434H18.8521L18.674 16.9416H18.1758L19.0231 14.6943H19.5394ZM19.5649 16.0725L19.2849 15.2471L18.994 16.0725H19.5649Z" fill="white"/>
<path d="M21.182 14.6943V16.5125H22.273V16.9271H20.6875V14.6943H21.182Z" fill="white"/>
<path d="M13.875 16.9495V14.6876H14.7623C15.0472 14.683 15.3225 14.79 15.5295 14.9858C15.6352 15.095 15.7177 15.2244 15.772 15.3662C15.8264 15.5081 15.8515 15.6595 15.8459 15.8113C15.8589 15.9562 15.8419 16.1022 15.796 16.2402C15.75 16.3782 15.6761 16.5053 15.5789 16.6134C15.4816 16.7216 15.3631 16.8086 15.2307 16.8689C15.0984 16.9292 14.955 16.9616 14.8095 16.964L13.875 16.9495ZM14.3514 15.1604V16.4804H14.8059C15.0677 16.4804 15.3695 16.2949 15.3695 15.8004C15.3751 15.7116 15.3625 15.6225 15.3325 15.5387C15.3025 15.455 15.2557 15.3782 15.195 15.3131C15.0699 15.2054 14.9091 15.1483 14.7441 15.1531L14.3514 15.1604Z" fill="white"/>
</g>
<defs>
<clipPath id="clip0_353_9388">
<rect width="32" height="32" fill="white" transform="translate(0.785156)"/>
</clipPath>
</defs>
</svg>
