<svg viewBox="0 0 121 120" fill="none" xmlns="http://www.w3.org/2000/svg">
<g clip-path="url(#clip0_2969_5967)">
<path d="M81.9846 62.2783L62.3552 81.9356L81.5894 101.179C88.0659 95.0094 95.0305 88.0308 101.228 81.5078L81.9846 62.2783ZM59.8817 79.4807L79.5297 59.8327L59.9003 40.1847L40.257 59.8327L59.8817 79.4807ZM59.9189 119.13C61.6996 119.13 69.5895 112.458 79.0741 103.573L59.8817 84.4183L40.7266 103.555C50.2344 112.449 58.1522 119.13 59.9375 119.13H59.9189ZM37.8161 62.2829L18.5586 81.5218C24.7283 87.9797 31.7069 94.9537 38.2299 101.156L57.4548 81.9356L37.8161 62.2829ZM35.3473 59.8513L16.1828 40.659C7.2887 50.1436 0.621582 58.0335 0.621582 59.8141C0.621582 61.5948 7.30264 69.5173 16.1968 79.0251L35.3473 59.8513ZM57.4687 37.7299L38.2299 18.5097C31.7208 24.7025 24.7469 31.6672 18.5586 38.1437L37.8161 57.3826L57.4687 37.7299ZM59.9143 35.2844L79.0741 16.1478C69.5662 7.24901 61.6438 0.572601 59.8631 0.572601C58.0824 0.572601 50.1879 7.23972 40.708 16.1339L59.9143 35.2844ZM81.9846 57.3826L101.209 38.1623C95.0119 31.6533 88.0473 24.6793 81.5708 18.4911L62.3552 37.7299L81.9846 57.3826ZM103.604 79.0437C112.489 69.5591 119.16 61.6692 119.16 59.8885C119.16 58.1078 112.479 50.1854 103.585 40.6776L84.4673 59.8513L103.604 79.0437Z" fill="#E91B29"/>
</g>
<defs>
<clipPath id="clip0_2969_5967">
<rect width="120" height="120" fill="white" transform="translate(0.621582)"/>
</clipPath>
</defs>
</svg>
