<svg viewBox="0 0 33 32" fill="none" xmlns="http://www.w3.org/2000/svg">
<g clip-path="url(#clip0_353_9383)">
<path d="M16.7852 32C25.6217 32 32.7852 24.8366 32.7852 16C32.7852 7.16344 25.6217 0 16.7852 0C7.9486 0 0.785156 7.16344 0.785156 16C0.785156 24.8366 7.9486 32 16.7852 32Z" fill="#111111"/>
<path d="M12.3062 22.3996C15.8409 22.3996 18.7062 19.5342 18.7062 15.9996C18.7062 12.465 15.8409 9.59961 12.3062 9.59961C8.77163 9.59961 5.90625 12.465 5.90625 15.9996C5.90625 19.5342 8.77163 22.3996 12.3062 22.3996Z" fill="#E7001A"/>
<path d="M20.6266 22.3996C24.1612 22.3996 27.0266 19.5342 27.0266 15.9996C27.0266 12.465 24.1612 9.59961 20.6266 9.59961C17.0919 9.59961 14.2266 12.465 14.2266 15.9996C14.2266 19.5342 17.0919 22.3996 20.6266 22.3996Z" fill="#F49B1C"/>
<path opacity="0.3" fill-rule="evenodd" clip-rule="evenodd" d="M16.4666 20.8642C17.8376 19.6904 18.7066 17.9469 18.7066 16.0005C18.7066 14.054 17.8376 12.3105 16.4666 11.1367C15.0955 12.3105 14.2266 14.054 14.2266 16.0005C14.2266 17.9469 15.0955 19.6904 16.4666 20.8642Z" fill="#E7001A"/>
</g>
<defs>
<clipPath id="clip0_353_9383">
<rect width="32" height="32" fill="white" transform="translate(0.785156)"/>
</clipPath>
</defs>
</svg>
