<svg viewBox="0 0 33 32" fill="none" xmlns="http://www.w3.org/2000/svg">
<g clip-path="url(#clip0_353_9372)">
<path d="M32.7852 16C32.7852 7.16344 25.6217 0 16.7852 0C7.9486 0 0.785156 7.16344 0.785156 16C0.785156 24.8366 7.9486 32 16.7852 32C25.6217 32 32.7852 24.8366 32.7852 16Z" fill="#F9FFE4"/>
<path d="M7.78516 12.7559L17.2973 18.2436V22.9997H7.78516V12.7559Z" fill="#E95054"/>
<path d="M26.8086 12.7559L17.2965 18.2436V22.9997H26.8086V12.7559Z" fill="#C7E84E"/>
<path d="M7.78516 12.7561L17.2973 17.878M7.78516 12.7561L17.2973 8L26.6029 12.7561M7.78516 12.7561V22.9999H17.194M17.2973 17.878L26.6029 12.7561M17.2973 17.878L17.194 22.9999M26.6029 12.7561V22.9999H17.194" stroke="black"/>
</g>
<defs>
<clipPath id="clip0_353_9372">
<rect width="32" height="32" fill="white" transform="translate(0.785156)"/>
</clipPath>
</defs>
</svg>
