<?xml version="1.0" encoding="utf-8"?>
<!-- Generator: Adobe Illustrator 27.0.0, SVG Export Plug-In . SVG Version: 6.00 Build 0)  -->
<svg version="1.1" id="Layer_1" xmlns="http://www.w3.org/2000/svg" xmlns:xlink="http://www.w3.org/1999/xlink" x="0px" y="0px"
	 viewBox="0 0 500 500" style="enable-background:new 0 0 500 500;" xml:space="preserve">
<style type="text/css">
	.st0{fill-rule:evenodd;clip-rule:evenodd;fill:#FFFFFF;}
</style>
<g transform="translate(125 143)">
	<path class="st0" d="M34.8,169.9c2.9,0,4.6,2,4.6,4.6c0,1.3-0.6,2.5-1.2,3.3l-13.8,18.7v12.4c0,2.6-2.1,4.7-4.7,4.7
		c-2.6,0-4.7-2.1-4.7-4.7v-12.2L1.2,177.9c-0.7-0.9-1.2-2-1.2-3.4c0-2.5,2.1-4.5,4.7-4.5c2.1,0,3.5,1.2,4.6,2.9l10.4,15l10.6-15.1
		C31.5,171,32.9,169.9,34.8,169.9z M66.6,169.6c13.2,0,22.7,9.9,22.7,22.1v0.1c0,12.2-9.6,22.2-22.8,22.2
		c-13.2,0-22.7-9.9-22.7-22.1v-0.1C43.8,179.6,53.4,169.6,66.6,169.6L66.6,169.6z M79.4,191.9v-0.1c0-7.4-5.4-13.5-13-13.5
		s-12.8,6-12.8,13.4v0.1c0,7.4,5.4,13.5,13,13.5C74.2,205.3,79.4,199.3,79.4,191.9L79.4,191.9z M131.6,170c2.6,0,4.7,2.1,4.7,4.7
		v19.9c0,13-7.3,19.4-18.8,19.4c-11.5,0-18.5-6.4-18.5-19.1v-20.2c0-2.6,2.1-4.7,4.7-4.7c2.6,0,4.7,2.1,4.7,4.7v19.9
		c0,7,3.5,10.6,9.2,10.6c5.7,0,9.2-3.5,9.2-10.3v-20.2C126.8,172.1,128.9,170,131.6,170L131.6,170z M202.5,170c2.6,0,4.6,2,4.6,4.5
		c0,0.6-0.2,1.3-0.4,1.8l-12,33.7c-0.9,2.4-2.6,3.9-4.9,3.9h-1c-2.3,0-4-1.4-4.8-3.9l-8.4-24.6l-8.4,24.6c-0.9,2.5-2.6,3.9-4.8,3.9
		h-1c-2.3,0-4-1.5-4.9-3.9l-12-33.7c-0.2-0.6-0.4-1.2-0.4-1.8c0-2.6,2.2-4.6,4.8-4.6c2.2,0,4,1.4,4.6,3.4l8.5,26.3l8.6-26.1
		c0.7-2.2,2.4-3.7,4.8-3.7h0.7c2.4,0,4,1.5,4.8,3.7l8.6,26.1l8.5-26.3C198.6,171.5,200.2,170,202.5,170L202.5,170z M244.5,204.9
		c2.3,0,4.2,1.9,4.2,4.2c0,2.3-1.9,4.2-4.2,4.2h-24c-2.6,0-4.7-2.1-4.7-4.7v-33.5c0-2.6,2.1-4.7,4.7-4.7h23.7c2.3,0,4.2,1.9,4.2,4.2
		s-1.9,4.2-4.2,4.2h-19.1v8.7h16.3c2.3,0,4.2,1.9,4.2,4.2c0,2.3-1.9,4.2-4.2,4.2h-16.3v9L244.5,204.9z"/>
	<path class="st0" d="M236,5.6c13.1,9.1,16.4,27.1,7.3,40.3l-41.6,60.2c-9.6,14-25.5,22.3-42.4,22.3h-43.1
		C147,83.7,195.9,12.9,195.9,12.9C204.9-0.3,222.9-3.5,236,5.6L236,5.6z M15.1,4C28.3-3.3,45,1.5,53.5,13.9L90.9,68
		c7.2,10.5,7.3,24.4,0,34.9l-14.8,21.4c-4,5.8-12.5,5.8-16.5,0L5.4,45.8C-4.2,31.9,0,12.5,15.1,4z M131.3,44.3
		c-4,5.8-12.5,5.8-16.5,0L95.3,16.2c-4.6-6.7,0.2-15.8,8.3-15.8h38.8c8.1,0,12.9,9.1,8.3,15.8L131.3,44.3z"/>
</g>
</svg>
