<svg width="100%" height="100%" viewBox="0 0 136 120" fill="none" xmlns="http://www.w3.org/2000/svg">
<path fill-rule="evenodd" clip-rule="evenodd" d="M18.952 94.505C20.5138 94.505 21.4466 95.6173 21.4466 97.029C21.4466 97.7356 21.1118 98.3761 20.7829 98.8464L13.2674 109.109V115.904C13.2674 117.352 12.1365 118.496 10.7056 118.496C9.27683 118.496 8.1467 117.352 8.1467 115.904V109.21L0.631957 98.8798C0.266087 98.3761 0 97.7698 0 97.029C0 95.65 1.13013 94.5392 2.55887 94.5392C3.72226 94.5392 4.454 95.1797 5.08522 96.1218L10.7373 104.365L16.49 96.0549C17.122 95.112 17.887 94.505 18.952 94.505ZM36.2307 94.3393C43.4143 94.3393 48.5675 99.7543 48.5675 106.452V106.517C48.5675 113.214 43.3463 118.697 36.1649 118.697C28.982 118.697 23.8281 113.281 23.8281 106.585V106.517C23.8281 99.8219 29.0493 94.3393 36.2307 94.3393ZM43.2133 106.585V106.517C43.2133 102.479 40.2885 99.1161 36.1649 99.1161C32.0413 99.1161 29.1824 102.413 29.1824 106.452V106.517C29.1824 110.555 32.1063 113.92 36.2307 113.92C40.3536 113.92 43.2133 110.623 43.2133 106.585ZM71.5634 94.5407C72.9951 94.5407 74.1259 95.6849 74.1259 97.1308V108.032C74.1259 115.166 70.1664 118.664 63.9163 118.664C57.6647 118.664 53.8427 115.131 53.8427 108.201V97.1308C53.8427 95.6849 54.9728 94.5407 56.4016 94.5407C57.8325 94.5407 58.9634 95.6849 58.9634 97.1308V108.065C58.9634 111.902 60.8578 113.885 63.9836 113.885C67.1101 113.885 69.0038 111.968 69.0038 108.233V97.1308C69.0038 95.6849 70.1346 94.5407 71.5634 94.5407ZM110.178 94.5392C111.575 94.5392 112.706 95.6173 112.706 97.029C112.706 97.3329 112.604 97.7371 112.505 98.0395L105.987 116.544C105.52 117.856 104.559 118.664 103.327 118.664H102.798C101.566 118.664 100.633 117.891 100.17 116.544L95.5807 103.052L90.9907 116.544C90.5272 117.891 89.5952 118.664 88.3631 118.664H87.8324C86.601 118.664 85.6394 117.856 85.1722 116.544L78.6553 98.0395C78.5563 97.7371 78.455 97.3678 78.455 97.0639C78.455 95.6173 79.6531 94.5392 81.0834 94.5392C82.2815 94.5392 83.2461 95.3141 83.5764 96.39L88.1982 110.824L92.8533 96.5238C93.2509 95.3141 94.1519 94.4731 95.4476 94.4731H95.8453C97.1447 94.4731 98.0412 95.28 98.4396 96.5238L103.095 110.824L107.717 96.39C108.051 95.381 108.916 94.5392 110.178 94.5392ZM132.995 113.684C134.258 113.684 135.29 114.727 135.29 116.005C135.29 117.285 134.258 118.294 132.995 118.294H119.928C118.5 118.294 117.368 117.15 117.368 115.704V97.3329C117.368 95.8855 118.5 94.7428 119.928 94.7428H132.828C134.093 94.7428 135.123 95.786 135.123 97.0639C135.123 98.3419 134.093 99.3524 132.828 99.3524H122.455V104.129H131.333C132.596 104.129 133.626 105.172 133.626 106.452C133.626 107.729 132.596 108.738 131.333 108.738H122.455V113.684H132.995Z" fill="#0b2732"/>
<path fill-rule="evenodd" clip-rule="evenodd" d="M128.385 4.35065C135.509 9.34139 137.286 19.2345 132.353 26.4438L109.738 59.4866C104.492 67.1521 95.8721 71.7127 86.6589 71.7127H63.1959C79.9646 47.2114 106.55 8.36508 106.55 8.36508C111.484 1.155 121.259 -0.641583 128.385 4.35065ZM8.22014 3.52369C15.3697 -0.529389 24.4625 2.10752 29.1287 8.92531L49.454 38.6231C53.3973 44.3858 53.4017 52.0187 49.4644 57.7858L41.4367 69.5461C39.2644 72.7269 34.6189 72.7291 32.4444 69.5505L2.94127 26.4438C-2.27921 18.8095 0.0180082 8.17116 8.22014 3.52369ZM71.4173 25.6317C69.2457 28.8125 64.601 28.8155 62.425 25.6369L51.8658 10.207C49.355 6.5373 51.9508 1.52575 56.3604 1.52575H77.4537C81.8619 1.52575 84.457 6.5321 81.9514 10.2018L71.4173 25.6317Z" fill="#E40046"/>
</svg>
